<svg width="343" height="120" viewBox="0 0 343 120" fill="none" xmlns="http://www.w3.org/2000/svg">
<rect x="0.5" y="0.5" width="342" height="119" rx="7.5" fill="white"/>
<rect x="0.5" y="0.5" width="342" height="119" rx="7.5" stroke="#0EBD8D"/>
<rect width="110" height="120" fill="#4DD865" fill-opacity="0.1"/>
<path d="M24.654 53.004L27.384 57.918H25.536V58.786H27.874L27.888 58.8V60.004H25.536V60.872H27.888V63H29.512V60.872H31.878V60.004H29.512V58.8L29.526 58.786H31.878V57.918H30.016L32.746 53.004H30.898L28.7 57.302L26.502 53.004H24.654Z" fill="#0EBD8D"/>
<path d="M40.924 41.652C40.156 42.484 39.196 43.22 38.044 43.924C36.892 44.564 35.836 45.012 34.812 45.268V48.724C36.924 48.116 38.684 47.156 40.06 45.844V64.5H43.548V41.652H40.924ZM56.1625 41.204C53.4745 41.204 51.3945 42.324 49.9225 44.596C48.5785 46.676 47.9065 49.492 47.9065 53.076C47.9065 56.628 48.5785 59.444 49.9225 61.556C51.3945 63.796 53.4745 64.948 56.1625 64.948C58.8505 64.948 60.9305 63.796 62.4025 61.556C63.7465 59.444 64.4185 56.596 64.4185 53.076C64.4185 49.524 63.7465 46.708 62.4025 44.596C60.9305 42.324 58.8505 41.204 56.1625 41.204ZM56.1625 44.148C58.0185 44.148 59.3625 45.172 60.1305 47.252C60.6745 48.66 60.9625 50.612 60.9625 53.076C60.9625 55.508 60.6745 57.46 60.1305 58.9C59.3625 60.948 58.0185 62.004 56.1625 62.004C54.2745 62.004 52.9625 60.948 52.1945 58.9C51.6185 57.46 51.3625 55.508 51.3625 53.076C51.3625 50.612 51.6185 48.66 52.1945 47.252C52.9625 45.172 54.2745 44.148 56.1625 44.148ZM75.35 41.204C72.662 41.204 70.582 42.324 69.11 44.596C67.766 46.676 67.094 49.492 67.094 53.076C67.094 56.628 67.766 59.444 69.11 61.556C70.582 63.796 72.662 64.948 75.35 64.948C78.038 64.948 80.118 63.796 81.59 61.556C82.934 59.444 83.606 56.596 83.606 53.076C83.606 49.524 82.934 46.708 81.59 44.596C80.118 42.324 78.038 41.204 75.35 41.204ZM75.35 44.148C77.206 44.148 78.55 45.172 79.318 47.252C79.862 48.66 80.15 50.612 80.15 53.076C80.15 55.508 79.862 57.46 79.318 58.9C78.55 60.948 77.206 62.004 75.35 62.004C73.462 62.004 72.15 60.948 71.382 58.9C70.806 57.46 70.55 55.508 70.55 53.076C70.55 50.612 70.806 48.66 71.382 47.252C72.15 45.172 73.462 44.148 75.35 44.148Z" fill="#0EBD8D"/>
<path d="M22.67 78.43L22.15 78.93C22.83 79.47 23.36 79.99 23.74 80.47L24.25 79.96C23.82 79.45 23.29 78.94 22.67 78.43ZM22.42 80.87L21.91 81.37C22.65 81.91 23.22 82.42 23.63 82.9L24.14 82.4C23.68 81.89 23.1 81.38 22.42 80.87ZM23.61 83.52C23.19 84.74 22.68 85.94 22.1 87.11L22.77 87.41C23.31 86.27 23.8 85.05 24.24 83.76L23.61 83.52ZM24.42 80.96V81.62H26.5V82.69H24.82V87.45H25.47V83.33H26.49C26.43 84.24 26.12 85.06 25.57 85.8L26.05 86.22C26.49 85.62 26.79 84.96 26.96 84.24C27.12 84.52 27.32 84.88 27.54 85.32L27.87 84.83C27.59 84.42 27.31 84.05 27.05 83.71C27.07 83.59 27.08 83.46 27.09 83.33H28.41C28.39 84.46 28.02 85.47 27.31 86.35L27.78 86.77C28.35 86.05 28.72 85.25 28.9 84.38C29.06 84.68 29.26 85.08 29.49 85.58L29.82 85.09C29.53 84.63 29.25 84.22 28.98 83.84C29 83.68 29.01 83.51 29.01 83.33H30.03V86.37C30.03 86.65 29.89 86.8 29.63 86.8L28.83 86.77L29.01 87.41H29.84C30.4 87.41 30.68 87.11 30.68 86.51V82.69H29.01V81.62H30.99V80.96H24.42ZM27.1 82.69V81.62H28.41V82.69H27.1ZM24.64 79.15V79.83H26.14V80.54H26.84V79.83H28.56V80.53H29.26V79.83H30.84V79.15H29.26V78.36H28.56V79.15H26.84V78.36H26.14V79.15H24.64Z" fill="#0EBD8D"/>
<path d="M35.8 79.36C35.56 79.63 35.28 79.87 34.94 80.09C34.6 80.29 34.26 80.43 33.94 80.52V81.34C34.61 81.14 35.17 80.82 35.62 80.36V86.5H36.44V79.36H35.8ZM40.5137 79.22C39.6537 79.22 39.0137 79.59 38.5837 80.35C38.2037 80.99 38.0137 81.85 38.0137 82.93C38.0137 84.01 38.2037 84.87 38.5837 85.51C39.0137 86.26 39.6537 86.64 40.5137 86.64C41.3637 86.64 42.0037 86.26 42.4437 85.51C42.8237 84.87 43.0137 84.01 43.0137 82.93C43.0137 81.85 42.8237 80.99 42.4437 80.35C42.0037 79.59 41.3637 79.22 40.5137 79.22ZM40.5137 79.92C41.1537 79.92 41.6137 80.26 41.8937 80.95C42.0937 81.43 42.2037 82.09 42.2037 82.93C42.2037 83.76 42.0937 84.42 41.8937 84.91C41.6137 85.59 41.1537 85.94 40.5137 85.94C39.8737 85.94 39.4137 85.59 39.1337 84.91C38.9337 84.42 38.8337 83.76 38.8337 82.93C38.8337 82.09 38.9337 81.43 39.1337 80.95C39.4137 80.26 39.8737 79.92 40.5137 79.92ZM46.5098 79.22C45.6498 79.22 45.0098 79.59 44.5798 80.35C44.1998 80.99 44.0098 81.85 44.0098 82.93C44.0098 84.01 44.1998 84.87 44.5798 85.51C45.0098 86.26 45.6498 86.64 46.5098 86.64C47.3598 86.64 47.9998 86.26 48.4398 85.51C48.8198 84.87 49.0098 84.01 49.0098 82.93C49.0098 81.85 48.8198 80.99 48.4398 80.35C47.9998 79.59 47.3598 79.22 46.5098 79.22ZM46.5098 79.92C47.1498 79.92 47.6098 80.26 47.8898 80.95C48.0898 81.43 48.1998 82.09 48.1998 82.93C48.1998 83.76 48.0898 84.42 47.8898 84.91C47.6098 85.59 47.1498 85.94 46.5098 85.94C45.8698 85.94 45.4098 85.59 45.1298 84.91C44.9298 84.42 44.8298 83.76 44.8298 82.93C44.8298 82.09 44.9298 81.43 45.1298 80.95C45.4098 80.26 45.8698 79.92 46.5098 79.92ZM52.5059 79.22C51.6459 79.22 51.0059 79.59 50.5759 80.35C50.1959 80.99 50.0059 81.85 50.0059 82.93C50.0059 84.01 50.1959 84.87 50.5759 85.51C51.0059 86.26 51.6459 86.64 52.5059 86.64C53.3559 86.64 53.9959 86.26 54.4359 85.51C54.8159 84.87 55.0059 84.01 55.0059 82.93C55.0059 81.85 54.8159 80.99 54.4359 80.35C53.9959 79.59 53.3559 79.22 52.5059 79.22ZM52.5059 79.92C53.1459 79.92 53.6059 80.26 53.8859 80.95C54.0859 81.43 54.1959 82.09 54.1959 82.93C54.1959 83.76 54.0859 84.42 53.8859 84.91C53.6059 85.59 53.1459 85.94 52.5059 85.94C51.8659 85.94 51.4059 85.59 51.1259 84.91C50.9259 84.42 50.8259 83.76 50.8259 82.93C50.8259 82.09 50.9259 81.43 51.1259 80.95C51.4059 80.26 51.8659 79.92 52.5059 79.92Z" fill="#0EBD8D"/>
<path d="M60 78.89V79.59H66.91V78.89H60ZM59.23 81.83V82.53H61.82V82.68C61.8 83.77 61.58 84.66 61.18 85.34C60.75 86 60 86.52 58.92 86.92L59.31 87.53C60.42 87.12 61.22 86.55 61.72 85.82C62.22 85.03 62.49 83.98 62.52 82.68V82.53H64.32V86.41C64.32 87.03 64.63 87.34 65.26 87.34H66.71C67.07 87.34 67.34 87.23 67.51 87.03C67.71 86.8 67.84 86.14 67.91 85.05L67.25 84.84C67.21 85.74 67.14 86.28 67.02 86.46C66.94 86.61 66.79 86.69 66.57 86.69H65.46C65.16 86.69 65.02 86.54 65.02 86.26V82.53H67.78V81.83H59.23ZM69.05 78.93V79.63H75.93V86.25C75.93 86.59 75.76 86.77 75.44 86.77C74.94 86.77 74.41 86.75 73.86 86.73L74.02 87.43H75.69C76.33 87.43 76.65 87.09 76.65 86.43V79.63H77.97V78.93H69.05ZM74.1 81.16H70.21V85.71H70.91V84.83H74.1V81.16ZM70.91 84.17V81.81H73.41V84.17H70.91ZM80.63 81.82H83.17V83.57H80.63V81.82ZM80.59 84.23H83.17V87.16H83.91V84.23H86.63V85.97C86.63 86.39 86.44 86.6 86.08 86.6C85.74 86.6 85.37 86.58 84.97 86.56L85.16 87.27H86.31C87.01 87.27 87.36 86.92 87.36 86.22V78.73H79.91V83.53C79.89 84.9 79.56 86.03 78.92 86.92L79.47 87.41C80.11 86.57 80.48 85.51 80.59 84.23ZM86.63 83.57H83.91V81.82H86.63V83.57ZM86.63 81.15H83.91V79.43H86.63V81.15ZM83.17 79.43V81.15H80.63V79.43H83.17Z" fill="#0EBD8D"/>
<path d="M134.058 22.162C132.086 24.304 129.604 26.106 126.612 27.551L127.207 28.622C130.216 27.109 132.647 25.324 134.5 23.267C136.506 25.426 138.903 27.177 141.725 28.537L142.337 27.449C139.549 26.157 137.084 24.406 134.942 22.162H134.058ZM129.757 27.534V28.707H133.871V31.665H128.941V32.838H133.871V35.983H127.428V37.19H141.589V35.983H135.129V32.838H140.042V31.665H135.129V28.707H139.243V27.534H129.757ZM144.649 22.876V24.066H150.803V30.492H143.969V31.665H150.803V37.683H152.061V31.665H159.031V30.492H152.061V24.066H158.385V22.876H144.649ZM146.723 25.154L145.584 25.715C146.23 26.854 146.842 28.146 147.42 29.608L148.559 29.047C147.981 27.636 147.369 26.344 146.723 25.154ZM156.362 25.069C155.869 26.361 155.206 27.653 154.373 28.979L155.461 29.54C156.294 28.248 156.974 26.939 157.484 25.596L156.362 25.069ZM174.178 30.628H162.822V37.717H164.063V36.867H172.937V37.717H174.178V30.628ZM164.063 35.694V31.801H172.937V35.694H164.063ZM161.615 28.877C166.035 28.707 170.03 28.469 173.617 28.146C174.025 28.792 174.45 29.455 174.875 30.169L176.065 29.591C174.807 27.534 173.447 25.647 171.985 23.947L170.88 24.474C171.56 25.256 172.223 26.123 172.869 27.041C169.945 27.313 166.851 27.534 163.587 27.67C165.117 26.412 166.664 24.678 168.194 22.502L166.936 22.077C164.726 25.324 162.873 27.211 161.377 27.721L161.615 28.877ZM179.142 22.383L178.309 23.182C179.55 24.134 180.519 25.035 181.233 25.885L182.1 25.035C181.301 24.151 180.315 23.267 179.142 22.383ZM189.087 37.394H192.946L193.235 36.17C192.793 36.204 192.164 36.221 191.348 36.238C190.515 36.255 189.699 36.272 188.917 36.272C187.574 36.272 186.452 36.255 185.551 36.238C184.531 36.204 183.766 36.068 183.222 35.83C182.746 35.609 182.304 35.252 181.896 34.759C181.743 34.589 181.607 34.47 181.471 34.368V28.01H177.918V29.132H180.332V34.3C179.635 34.606 178.836 35.473 177.935 36.901L178.853 37.734C179.788 36.17 180.468 35.388 180.876 35.388C181.08 35.388 181.301 35.524 181.539 35.813C182.066 36.425 182.678 36.85 183.358 37.054C184.038 37.241 184.939 37.343 186.044 37.36C187.132 37.377 188.152 37.394 189.087 37.394ZM186.044 24.015L185.296 24.746C186.129 25.188 186.877 25.647 187.523 26.106H183.273V35.15H184.429V32.175H187.268V35.099H188.407V32.175H191.263V33.45C191.263 33.824 191.059 34.028 190.651 34.028L189.308 33.977L189.58 35.014H190.991C191.943 35.014 192.419 34.572 192.419 33.705V26.106H189.053L188.781 25.885C189.971 25.239 191.076 24.474 192.096 23.59V22.706H182.899V23.743H190.447C189.699 24.321 188.883 24.831 187.999 25.29C187.421 24.865 186.758 24.44 186.044 24.015ZM184.429 29.676H187.268V31.172H184.429V29.676ZM188.407 29.676H191.263V31.172H188.407V29.676ZM191.263 28.656H188.407V27.126H191.263V28.656ZM187.268 28.656H184.429V27.126H187.268V28.656ZM197.621 28.044H201.939V31.019H197.621V28.044ZM197.553 32.141H201.939V37.122H203.197V32.141H207.821V35.099C207.821 35.813 207.498 36.17 206.886 36.17C206.308 36.17 205.679 36.136 204.999 36.102L205.322 37.309H207.277C208.467 37.309 209.062 36.714 209.062 35.524V22.791H196.397V30.951C196.363 33.28 195.802 35.201 194.714 36.714L195.649 37.547C196.737 36.119 197.366 34.317 197.553 32.141ZM207.821 31.019H203.197V28.044H207.821V31.019ZM207.821 26.905H203.197V23.981H207.821V26.905ZM201.939 23.981V26.905H197.621V23.981H201.939ZM217.528 32.328C217.222 33.348 216.797 34.181 216.219 34.827C215.539 35.524 214.536 36.17 213.21 36.748L213.975 37.717C215.437 37.02 216.525 36.238 217.256 35.388C217.851 34.623 218.327 33.603 218.667 32.328H222.832C222.764 34.062 222.611 35.184 222.373 35.728C222.135 36.238 221.659 36.493 220.945 36.493C220.231 36.493 219.483 36.476 218.684 36.442L219.007 37.581H221.54C222.237 37.547 222.747 37.343 223.07 36.986C223.393 36.612 223.631 35.949 223.767 34.997C223.886 34.062 223.971 32.838 224.022 31.342C224.736 31.92 225.569 32.498 226.555 33.059L227.337 32.056C225.365 31.138 223.954 30.084 223.087 28.928H226.81V27.806H218.361C218.701 27.228 219.024 26.599 219.296 25.936H225.875V24.848H223.206C223.784 24.134 224.26 23.318 224.651 22.366L223.631 21.992C223.274 22.893 222.832 23.675 222.288 24.355L223.155 24.848H219.704C219.976 23.998 220.197 23.08 220.367 22.094L219.16 21.941C218.99 22.961 218.769 23.93 218.463 24.848H213.125V25.936H218.021C217.732 26.582 217.392 27.211 217.001 27.806H212.19V28.928H216.134C214.961 30.254 213.465 31.308 211.663 32.09L212.343 33.127C213.329 32.651 214.264 32.073 215.131 31.41V32.328H217.528ZM217.596 28.928H221.846C222.322 29.71 222.985 30.458 223.869 31.206H215.403C216.219 30.543 216.95 29.778 217.596 28.928ZM215.556 22.094L214.502 22.434C214.978 23.131 215.403 23.93 215.811 24.831L216.797 24.372C216.457 23.556 216.032 22.808 215.556 22.094Z" fill="black"/>
<path d="M130.2 52.516H134.964V53.824H130.2V52.516ZM134.964 54.58V55.852H130.2V54.58H134.964ZM134.964 56.608V57.976C134.964 58.264 134.808 58.408 134.496 58.408C134.1 58.408 133.668 58.384 133.212 58.36L133.428 59.152H134.772C135.444 59.128 135.78 58.828 135.78 58.24V51.76H130.212C130.5 51.316 130.752 50.848 130.992 50.368H137.316V49.528H131.352C131.52 49.108 131.664 48.676 131.808 48.232L130.932 48.124C130.788 48.592 130.608 49.06 130.404 49.528H126.828V50.368H130.008C129.18 51.916 128.016 53.284 126.504 54.484L127.068 55.216C127.932 54.52 128.712 53.74 129.384 52.9V59.176H130.2V56.608H134.964ZM140.22 50.848C139.728 51.916 139.14 52.828 138.468 53.584L139.164 54.088C139.848 53.272 140.448 52.324 140.964 51.22L140.22 50.848ZM143.376 53.08L143.94 52.504C143.304 51.736 142.752 51.16 142.272 50.776L141.744 51.292C142.284 51.796 142.824 52.384 143.376 53.08ZM140.172 53.8L139.632 54.412C140.136 54.82 140.652 55.276 141.156 55.78C140.448 56.872 139.536 57.724 138.42 58.336L138.948 59.104C140.1 58.444 141.036 57.544 141.78 56.416C142.188 56.848 142.62 57.316 143.052 57.832L143.664 57.148C143.208 56.62 142.728 56.116 142.224 55.624C142.548 55 142.824 54.304 143.04 53.56L142.296 53.248C142.104 53.872 141.864 54.46 141.588 55.012C141.132 54.592 140.664 54.184 140.172 53.8ZM141.408 48.112L140.508 48.256C140.724 48.628 140.928 49.036 141.108 49.468H138.648V50.296H144.204V49.468H141.948C141.768 48.964 141.588 48.52 141.408 48.112ZM145.788 50.98H147.576C147.528 52.504 147.204 53.848 146.628 55.024C146.172 54.112 145.8 53.044 145.512 51.82C145.608 51.556 145.692 51.268 145.788 50.98ZM146.16 55.84C145.452 56.908 144.456 57.772 143.184 58.444L143.676 59.224C144.876 58.54 145.86 57.676 146.616 56.644C147.288 57.724 148.104 58.576 149.064 59.188L149.568 58.432C148.608 57.844 147.78 56.992 147.096 55.888C147.876 54.52 148.296 52.888 148.368 50.98H149.388V50.14H146.016C146.148 49.564 146.268 48.952 146.364 48.28L145.5 48.136C145.212 50.38 144.636 52.156 143.796 53.476L144.348 54.136C144.588 53.776 144.828 53.392 145.044 52.96C145.344 54.016 145.716 54.976 146.16 55.84ZM151.5 48.232V49.576H150.756V50.38H151.5V55.456H150.624V56.272H156.3V55.456H155.52V50.38H156.24V49.576H155.52V48.256H154.68V49.576H152.34V48.232H151.5ZM152.34 55.456V54.28H154.68V55.456H152.34ZM154.68 50.38V51.58H152.34V50.38H154.68ZM152.34 53.524V52.336H154.68V53.524H152.34ZM154.464 56.584L153.792 57.004C154.332 57.724 154.764 58.396 155.076 59.008L155.712 58.552C155.7 58.576 155.688 58.6 155.664 58.624L156.324 59.236C157.116 58.18 157.596 56.872 157.764 55.288H160.092V57.748C160.092 58.108 159.936 58.288 159.624 58.288C159.24 58.288 158.832 58.264 158.388 58.24L158.628 59.092H159.9C160.596 59.092 160.956 58.744 160.956 58.06V48.652H156.972V54.268C156.948 55.948 156.552 57.352 155.76 58.468C155.46 57.94 155.028 57.304 154.464 56.584ZM152.124 56.572C151.68 57.388 151.152 58.084 150.552 58.672L151.236 59.164C151.836 58.528 152.364 57.772 152.82 56.908L152.124 56.572ZM157.824 52.36H160.092V54.496H157.812C157.812 54.4 157.824 54.304 157.824 54.196V52.36ZM160.092 51.568H157.824V49.468H160.092V51.568ZM162.996 48.784V49.624H166.344C165.528 50.968 164.532 51.988 163.356 52.66L163.584 53.416C166.164 53.284 168.684 53.032 171.132 52.648C171.432 53.044 171.708 53.428 171.96 53.812L172.668 53.308C172.08 52.432 171.228 51.4 170.112 50.224L169.416 50.668C169.8 51.076 170.172 51.496 170.532 51.928C168.708 52.228 166.812 52.432 164.868 52.552C165.792 51.808 166.62 50.836 167.34 49.624H172.956V48.784H162.996ZM163.56 55.048V55.876H167.556V57.88H162.72V58.72H173.28V57.88H168.444V55.876H172.38V55.048H168.444V53.656H167.556V55.048H163.56ZM181.716 49.264C180.852 49.264 180.144 49.552 179.616 50.128C179.088 50.692 178.812 51.46 178.812 52.42H179.796C179.808 51.664 179.988 51.088 180.324 50.704C180.636 50.296 181.092 50.104 181.68 50.104C182.232 50.104 182.676 50.248 182.988 50.536C183.3 50.824 183.456 51.22 183.456 51.748C183.456 52.3 183.228 52.816 182.796 53.284C182.568 53.524 182.124 53.872 181.452 54.352C180.54 54.976 179.928 55.492 179.592 55.876C179.016 56.512 178.74 57.22 178.74 58H184.452V57.124H179.952C180.108 56.548 180.732 55.888 181.824 55.156C182.712 54.556 183.3 54.088 183.6 53.776C184.152 53.176 184.44 52.504 184.44 51.76C184.44 51.016 184.176 50.404 183.672 49.948C183.156 49.492 182.508 49.264 181.716 49.264ZM188.791 49.264C187.759 49.264 186.991 49.708 186.475 50.62C186.019 51.388 185.791 52.42 185.791 53.716C185.791 55.012 186.019 56.044 186.475 56.812C186.991 57.712 187.759 58.168 188.791 58.168C189.811 58.168 190.579 57.712 191.107 56.812C191.563 56.044 191.791 55.012 191.791 53.716C191.791 52.42 191.563 51.388 191.107 50.62C190.579 49.708 189.811 49.264 188.791 49.264ZM188.791 50.104C189.559 50.104 190.111 50.512 190.447 51.34C190.687 51.916 190.819 52.708 190.819 53.716C190.819 54.712 190.687 55.504 190.447 56.092C190.111 56.908 189.559 57.328 188.791 57.328C188.023 57.328 187.471 56.908 187.135 56.092C186.895 55.504 186.775 54.712 186.775 53.716C186.775 52.708 186.895 51.916 187.135 51.34C187.471 50.512 188.023 50.104 188.791 50.104ZM196.107 49.264C195.243 49.264 194.535 49.552 194.007 50.128C193.479 50.692 193.203 51.46 193.203 52.42H194.187C194.199 51.664 194.379 51.088 194.715 50.704C195.027 50.296 195.483 50.104 196.071 50.104C196.623 50.104 197.067 50.248 197.379 50.536C197.691 50.824 197.847 51.22 197.847 51.748C197.847 52.3 197.619 52.816 197.187 53.284C196.959 53.524 196.515 53.872 195.843 54.352C194.931 54.976 194.319 55.492 193.983 55.876C193.407 56.512 193.131 57.22 193.131 58H198.843V57.124H194.343C194.499 56.548 195.123 55.888 196.215 55.156C197.103 54.556 197.691 54.088 197.991 53.776C198.543 53.176 198.831 52.504 198.831 51.76C198.831 51.016 198.567 50.404 198.063 49.948C197.547 49.492 196.899 49.264 196.107 49.264ZM202.342 49.432C202.054 49.756 201.718 50.044 201.31 50.308C200.902 50.548 200.494 50.716 200.11 50.824V51.808C200.914 51.568 201.586 51.184 202.126 50.632V58H203.11V49.432H202.342ZM204.998 54.484V55.3H211.058V54.484H204.998ZM214.424 49.432C214.136 49.756 213.8 50.044 213.392 50.308C212.984 50.548 212.576 50.716 212.192 50.824V51.808C212.996 51.568 213.668 51.184 214.208 50.632V58H215.192V49.432H214.424ZM220.2 49.264C219.336 49.264 218.628 49.552 218.1 50.128C217.572 50.692 217.296 51.46 217.296 52.42H218.28C218.292 51.664 218.472 51.088 218.808 50.704C219.12 50.296 219.576 50.104 220.164 50.104C220.716 50.104 221.16 50.248 221.472 50.536C221.784 50.824 221.94 51.22 221.94 51.748C221.94 52.3 221.712 52.816 221.28 53.284C221.052 53.524 220.608 53.872 219.936 54.352C219.024 54.976 218.412 55.492 218.076 55.876C217.5 56.512 217.224 57.22 217.224 58H222.936V57.124H218.436C218.592 56.548 219.216 55.888 220.308 55.156C221.196 54.556 221.784 54.088 222.084 53.776C222.636 53.176 222.924 52.504 222.924 51.76C222.924 51.016 222.66 50.404 222.156 49.948C221.64 49.492 220.992 49.264 220.2 49.264ZM224.276 54.484V55.3H230.336V54.484H224.276ZM234.625 49.264C233.809 49.264 233.149 49.492 232.645 49.96C232.117 50.428 231.805 51.076 231.733 51.904H232.705C232.765 51.328 232.957 50.884 233.293 50.572C233.617 50.26 234.061 50.116 234.637 50.116C235.189 50.116 235.633 50.248 235.945 50.536C236.233 50.8 236.389 51.172 236.389 51.652C236.389 52.132 236.233 52.504 235.933 52.768C235.633 53.02 235.201 53.152 234.625 53.152H233.965V53.92H234.661C235.261 53.92 235.717 54.052 236.053 54.34C236.389 54.628 236.557 55.024 236.557 55.54C236.557 56.044 236.377 56.464 236.041 56.8C235.669 57.148 235.177 57.328 234.565 57.328C234.025 57.328 233.581 57.172 233.221 56.884C232.801 56.536 232.573 56.02 232.549 55.348H231.553C231.625 56.308 231.961 57.04 232.573 57.544C233.089 57.952 233.749 58.168 234.565 58.168C235.453 58.168 236.173 57.916 236.725 57.412C237.265 56.92 237.541 56.284 237.541 55.504C237.541 55 237.397 54.58 237.109 54.244C236.845 53.908 236.461 53.668 235.957 53.512C236.893 53.2 237.361 52.552 237.361 51.592C237.361 50.872 237.109 50.308 236.617 49.888C236.113 49.468 235.441 49.264 234.625 49.264ZM241.737 49.264C240.705 49.264 239.937 49.708 239.421 50.62C238.965 51.388 238.737 52.42 238.737 53.716C238.737 55.012 238.965 56.044 239.421 56.812C239.937 57.712 240.705 58.168 241.737 58.168C242.757 58.168 243.525 57.712 244.053 56.812C244.509 56.044 244.737 55.012 244.737 53.716C244.737 52.42 244.509 51.388 244.053 50.62C243.525 49.708 242.757 49.264 241.737 49.264ZM241.737 50.104C242.505 50.104 243.057 50.512 243.393 51.34C243.633 51.916 243.765 52.708 243.765 53.716C243.765 54.712 243.633 55.504 243.393 56.092C243.057 56.908 242.505 57.328 241.737 57.328C240.969 57.328 240.417 56.908 240.081 56.092C239.841 55.504 239.721 54.712 239.721 53.716C239.721 52.708 239.841 51.916 240.081 51.34C240.417 50.512 240.969 50.104 241.737 50.104Z" fill="#BBBBBB"/>
<rect x="126.5" y="78.5" width="59" height="23" rx="11.5" stroke="#0EBD8D"/>
<path d="M146.088 90.64L145.392 91.084C146.028 91.924 146.604 92.728 147.108 93.496C145.956 93.64 143.916 93.82 141.012 94.048C141.888 93.196 142.752 91.876 143.604 90.076H149.328V89.236H144.444V86.968H148.56V86.128H144.444V84.22H143.556V86.128H139.416V86.968H143.556V89.236H138.66V90.076H142.644C141.564 92.236 140.508 93.592 139.476 94.156L139.632 94.864C142.128 94.72 144.768 94.504 147.552 94.216C147.768 94.576 147.972 94.936 148.164 95.284L148.896 94.768C148.248 93.592 147.312 92.224 146.088 90.64ZM154.104 85.42V86.248H157.248V87.388H154.512V90.784H157.2C157.128 91.624 156.96 92.308 156.708 92.836C156.072 92.38 155.496 91.84 154.98 91.192L154.32 91.648C154.872 92.356 155.508 92.968 156.216 93.472C155.664 94 154.764 94.336 153.54 94.468L153.912 95.26C155.304 95.056 156.324 94.624 156.972 93.964C158.244 94.708 159.72 95.128 161.4 95.236L161.616 94.408C160.044 94.324 158.652 93.952 157.452 93.292C157.776 92.692 157.98 91.864 158.076 90.784H160.932V87.388H158.124V86.248H161.424V85.42H158.124V84.196H157.248V85.42H154.104ZM160.116 90.004H158.112C158.112 89.908 158.124 89.812 158.124 89.716V88.156H160.116V90.004ZM157.236 90.004H155.328V88.156H157.248V89.716C157.248 89.812 157.236 89.908 157.236 90.004ZM151.908 88.528V95.224H152.772V87.148C153.216 86.32 153.588 85.432 153.888 84.496L153.072 84.124C152.52 86.02 151.62 87.7 150.372 89.164L150.66 90.076C151.116 89.584 151.524 89.068 151.908 88.528ZM164.556 88.384H167.604V90.484H164.556V88.384ZM164.508 91.276H167.604V94.792H168.492V91.276H171.756V93.364C171.756 93.868 171.528 94.12 171.096 94.12C170.688 94.12 170.244 94.096 169.764 94.072L169.992 94.924H171.372C172.212 94.924 172.632 94.504 172.632 93.664V84.676H163.692V90.436C163.668 92.08 163.272 93.436 162.504 94.504L163.164 95.092C163.932 94.084 164.376 92.812 164.508 91.276ZM171.756 90.484H168.492V88.384H171.756V90.484ZM171.756 87.58H168.492V85.516H171.756V87.58ZM167.604 85.516V87.58H164.556V85.516H167.604Z" fill="#0EBD8D"/>
</svg>
