<svg width="343" height="116" viewBox="0 0 343 116" fill="none" xmlns="http://www.w3.org/2000/svg">
<g clip-path="url(#clip0_33_1266)">
<rect width="343" height="116" fill="white"/>
<rect width="110" height="116" fill="#4DD865" fill-opacity="0.1"/>
<path d="M31.154 51.004L33.884 55.918H32.036V56.786H34.374L34.388 56.8V58.004H32.036V58.872H34.388V61H36.012V58.872H38.378V58.004H36.012V56.8L36.026 56.786H38.378V55.918H36.516L39.246 51.004H37.398L35.2 55.302L33.002 51.004H31.154Z" fill="#0EBD8D"/>
<path d="M49.824 39.204C47.584 39.204 45.76 39.812 44.352 41.092C42.848 42.372 42.016 44.132 41.824 46.404H45.248C45.376 44.996 45.856 43.94 46.624 43.236C47.392 42.532 48.48 42.18 49.856 42.18C51.2 42.18 52.256 42.468 52.96 43.108C53.6 43.716 53.952 44.58 53.952 45.732C53.952 46.884 53.568 47.78 52.864 48.388C52.16 48.996 51.104 49.316 49.696 49.316H48.064V51.94H49.728C51.232 51.94 52.384 52.26 53.152 52.9C53.984 53.54 54.4 54.532 54.4 55.876C54.4 57.028 53.984 57.956 53.216 58.724C52.32 59.556 51.136 60.004 49.664 60.004C48.32 60.004 47.232 59.62 46.4 58.852C45.44 58.02 44.96 56.836 44.896 55.3H41.376C41.568 57.86 42.464 59.812 44.064 61.156C45.472 62.34 47.36 62.948 49.696 62.948C52.128 62.948 54.144 62.244 55.68 60.9C57.12 59.556 57.856 57.828 57.856 55.716C57.856 54.372 57.472 53.252 56.704 52.388C56 51.556 54.976 50.916 53.632 50.5C56.128 49.668 57.408 47.972 57.408 45.476C57.408 43.524 56.704 41.988 55.36 40.868C53.952 39.748 52.128 39.204 49.824 39.204ZM68.7875 39.204C66.0995 39.204 64.0195 40.324 62.5475 42.596C61.2035 44.676 60.5315 47.492 60.5315 51.076C60.5315 54.628 61.2035 57.444 62.5475 59.556C64.0195 61.796 66.0995 62.948 68.7875 62.948C71.4755 62.948 73.5555 61.796 75.0275 59.556C76.3715 57.444 77.0435 54.596 77.0435 51.076C77.0435 47.524 76.3715 44.708 75.0275 42.596C73.5555 40.324 71.4755 39.204 68.7875 39.204ZM68.7875 42.148C70.6435 42.148 71.9875 43.172 72.7555 45.252C73.2995 46.66 73.5875 48.612 73.5875 51.076C73.5875 53.508 73.2995 55.46 72.7555 56.9C71.9875 58.948 70.6435 60.004 68.7875 60.004C66.8995 60.004 65.5875 58.948 64.8195 56.9C64.2435 55.46 63.9875 53.508 63.9875 51.076C63.9875 48.612 64.2435 46.66 64.8195 45.252C65.5875 43.172 66.8995 42.148 68.7875 42.148Z" fill="#0EBD8D"/>
<path d="M25.17 76.43L24.65 76.93C25.33 77.47 25.86 77.99 26.24 78.47L26.75 77.96C26.32 77.45 25.79 76.94 25.17 76.43ZM24.92 78.87L24.41 79.37C25.15 79.91 25.72 80.42 26.13 80.9L26.64 80.4C26.18 79.89 25.6 79.38 24.92 78.87ZM26.11 81.52C25.69 82.74 25.18 83.94 24.6 85.11L25.27 85.41C25.81 84.27 26.3 83.05 26.74 81.76L26.11 81.52ZM26.92 78.96V79.62H29V80.69H27.32V85.45H27.97V81.33H28.99C28.93 82.24 28.62 83.06 28.07 83.8L28.55 84.22C28.99 83.62 29.29 82.96 29.46 82.24C29.62 82.52 29.82 82.88 30.04 83.32L30.37 82.83C30.09 82.42 29.81 82.05 29.55 81.71C29.57 81.59 29.58 81.46 29.59 81.33H30.91C30.89 82.46 30.52 83.47 29.81 84.35L30.28 84.77C30.85 84.05 31.22 83.25 31.4 82.38C31.56 82.68 31.76 83.08 31.99 83.58L32.32 83.09C32.03 82.63 31.75 82.22 31.48 81.84C31.5 81.68 31.51 81.51 31.51 81.33H32.53V84.37C32.53 84.65 32.39 84.8 32.13 84.8L31.33 84.77L31.51 85.41H32.34C32.9 85.41 33.18 85.11 33.18 84.51V80.69H31.51V79.62H33.49V78.96H26.92ZM29.6 80.69V79.62H30.91V80.69H29.6ZM27.14 77.15V77.83H28.64V78.54H29.34V77.83H31.06V78.53H31.76V77.83H33.34V77.15H31.76V76.36H31.06V77.15H29.34V76.36H28.64V77.15H27.14Z" fill="#0EBD8D"/>
<path d="M37.05 77.36L36.67 81.3H37.45C37.59 81.02 37.81 80.8 38.09 80.66C38.36 80.51 38.66 80.44 39 80.44C39.52 80.44 39.93 80.59 40.22 80.91C40.52 81.22 40.68 81.66 40.68 82.23C40.68 82.73 40.51 83.14 40.19 83.46C39.86 83.78 39.45 83.94 38.95 83.94C38.51 83.94 38.14 83.83 37.86 83.62C37.54 83.38 37.36 83.03 37.32 82.58H36.51C36.56 83.23 36.83 83.75 37.33 84.13C37.77 84.47 38.31 84.64 38.94 84.64C39.64 84.64 40.24 84.42 40.72 83.99C41.23 83.53 41.49 82.94 41.49 82.22C41.49 81.45 41.27 80.85 40.85 80.41C40.43 79.98 39.88 79.77 39.2 79.77C38.87 79.77 38.57 79.82 38.29 79.94C37.98 80.06 37.72 80.24 37.52 80.48H37.48L37.72 78.09H41.2V77.36H37.05ZM44.9961 77.22C44.1361 77.22 43.4961 77.59 43.0661 78.35C42.6861 78.99 42.4961 79.85 42.4961 80.93C42.4961 82.01 42.6861 82.87 43.0661 83.51C43.4961 84.26 44.1361 84.64 44.9961 84.64C45.8461 84.64 46.4861 84.26 46.9261 83.51C47.3061 82.87 47.4961 82.01 47.4961 80.93C47.4961 79.85 47.3061 78.99 46.9261 78.35C46.4861 77.59 45.8461 77.22 44.9961 77.22ZM44.9961 77.92C45.6361 77.92 46.0961 78.26 46.3761 78.95C46.5761 79.43 46.6861 80.09 46.6861 80.93C46.6861 81.76 46.5761 82.42 46.3761 82.91C46.0961 83.59 45.6361 83.94 44.9961 83.94C44.3561 83.94 43.8961 83.59 43.6161 82.91C43.4161 82.42 43.3161 81.76 43.3161 80.93C43.3161 80.09 43.4161 79.43 43.6161 78.95C43.8961 78.26 44.3561 77.92 44.9961 77.92ZM50.9922 77.22C50.1322 77.22 49.4922 77.59 49.0622 78.35C48.6822 78.99 48.4922 79.85 48.4922 80.93C48.4922 82.01 48.6822 82.87 49.0622 83.51C49.4922 84.26 50.1322 84.64 50.9922 84.64C51.8422 84.64 52.4822 84.26 52.9222 83.51C53.3022 82.87 53.4922 82.01 53.4922 80.93C53.4922 79.85 53.3022 78.99 52.9222 78.35C52.4822 77.59 51.8422 77.22 50.9922 77.22ZM50.9922 77.92C51.6322 77.92 52.0922 78.26 52.3722 78.95C52.5722 79.43 52.6822 80.09 52.6822 80.93C52.6822 81.76 52.5722 82.42 52.3722 82.91C52.0922 83.59 51.6322 83.94 50.9922 83.94C50.3522 83.94 49.8922 83.59 49.6122 82.91C49.4122 82.42 49.3122 81.76 49.3122 80.93C49.3122 80.09 49.4122 79.43 49.6122 78.95C49.8922 78.26 50.3522 77.92 50.9922 77.92Z" fill="#0EBD8D"/>
<path d="M57.5 76.89V77.59H64.41V76.89H57.5ZM56.73 79.83V80.53H59.32V80.68C59.3 81.77 59.08 82.66 58.68 83.34C58.25 84 57.5 84.52 56.42 84.92L56.81 85.53C57.92 85.12 58.72 84.55 59.22 83.82C59.72 83.03 59.99 81.98 60.02 80.68V80.53H61.82V84.41C61.82 85.03 62.13 85.34 62.76 85.34H64.21C64.57 85.34 64.84 85.23 65.01 85.03C65.21 84.8 65.34 84.14 65.41 83.05L64.75 82.84C64.71 83.74 64.64 84.28 64.52 84.46C64.44 84.61 64.29 84.69 64.07 84.69H62.96C62.66 84.69 62.52 84.54 62.52 84.26V80.53H65.28V79.83H56.73ZM66.55 76.93V77.63H73.43V84.25C73.43 84.59 73.26 84.77 72.94 84.77C72.44 84.77 71.91 84.75 71.36 84.73L71.52 85.43H73.19C73.83 85.43 74.15 85.09 74.15 84.43V77.63H75.47V76.93H66.55ZM71.6 79.16H67.71V83.71H68.41V82.83H71.6V79.16ZM68.41 82.17V79.81H70.91V82.17H68.41ZM78.13 79.82H80.67V81.57H78.13V79.82ZM78.09 82.23H80.67V85.16H81.41V82.23H84.13V83.97C84.13 84.39 83.94 84.6 83.58 84.6C83.24 84.6 82.87 84.58 82.47 84.56L82.66 85.27H83.81C84.51 85.27 84.86 84.92 84.86 84.22V76.73H77.41V81.53C77.39 82.9 77.06 84.03 76.42 84.92L76.97 85.41C77.61 84.57 77.98 83.51 78.09 82.23ZM84.13 81.57H81.41V79.82H84.13V81.57ZM84.13 79.15H81.41V77.43H84.13V79.15ZM80.67 77.43V79.15H78.13V77.43H80.67Z" fill="#0EBD8D"/>
<path d="M134.058 20.162C132.086 22.304 129.604 24.106 126.612 25.551L127.207 26.622C130.216 25.109 132.647 23.324 134.5 21.267C136.506 23.426 138.903 25.177 141.725 26.537L142.337 25.449C139.549 24.157 137.084 22.406 134.942 20.162H134.058ZM129.757 25.534V26.707H133.871V29.665H128.941V30.838H133.871V33.983H127.428V35.19H141.589V33.983H135.129V30.838H140.042V29.665H135.129V26.707H139.243V25.534H129.757ZM144.649 20.876V22.066H150.803V28.492H143.969V29.665H150.803V35.683H152.061V29.665H159.031V28.492H152.061V22.066H158.385V20.876H144.649ZM146.723 23.154L145.584 23.715C146.23 24.854 146.842 26.146 147.42 27.608L148.559 27.047C147.981 25.636 147.369 24.344 146.723 23.154ZM156.362 23.069C155.869 24.361 155.206 25.653 154.373 26.979L155.461 27.54C156.294 26.248 156.974 24.939 157.484 23.596L156.362 23.069ZM174.178 28.628H162.822V35.717H164.063V34.867H172.937V35.717H174.178V28.628ZM164.063 33.694V29.801H172.937V33.694H164.063ZM161.615 26.877C166.035 26.707 170.03 26.469 173.617 26.146C174.025 26.792 174.45 27.455 174.875 28.169L176.065 27.591C174.807 25.534 173.447 23.647 171.985 21.947L170.88 22.474C171.56 23.256 172.223 24.123 172.869 25.041C169.945 25.313 166.851 25.534 163.587 25.67C165.117 24.412 166.664 22.678 168.194 20.502L166.936 20.077C164.726 23.324 162.873 25.211 161.377 25.721L161.615 26.877ZM179.142 20.383L178.309 21.182C179.55 22.134 180.519 23.035 181.233 23.885L182.1 23.035C181.301 22.151 180.315 21.267 179.142 20.383ZM189.087 35.394H192.946L193.235 34.17C192.793 34.204 192.164 34.221 191.348 34.238C190.515 34.255 189.699 34.272 188.917 34.272C187.574 34.272 186.452 34.255 185.551 34.238C184.531 34.204 183.766 34.068 183.222 33.83C182.746 33.609 182.304 33.252 181.896 32.759C181.743 32.589 181.607 32.47 181.471 32.368V26.01H177.918V27.132H180.332V32.3C179.635 32.606 178.836 33.473 177.935 34.901L178.853 35.734C179.788 34.17 180.468 33.388 180.876 33.388C181.08 33.388 181.301 33.524 181.539 33.813C182.066 34.425 182.678 34.85 183.358 35.054C184.038 35.241 184.939 35.343 186.044 35.36C187.132 35.377 188.152 35.394 189.087 35.394ZM186.044 22.015L185.296 22.746C186.129 23.188 186.877 23.647 187.523 24.106H183.273V33.15H184.429V30.175H187.268V33.099H188.407V30.175H191.263V31.45C191.263 31.824 191.059 32.028 190.651 32.028L189.308 31.977L189.58 33.014H190.991C191.943 33.014 192.419 32.572 192.419 31.705V24.106H189.053L188.781 23.885C189.971 23.239 191.076 22.474 192.096 21.59V20.706H182.899V21.743H190.447C189.699 22.321 188.883 22.831 187.999 23.29C187.421 22.865 186.758 22.44 186.044 22.015ZM184.429 27.676H187.268V29.172H184.429V27.676ZM188.407 27.676H191.263V29.172H188.407V27.676ZM191.263 26.656H188.407V25.126H191.263V26.656ZM187.268 26.656H184.429V25.126H187.268V26.656ZM197.621 26.044H201.939V29.019H197.621V26.044ZM197.553 30.141H201.939V35.122H203.197V30.141H207.821V33.099C207.821 33.813 207.498 34.17 206.886 34.17C206.308 34.17 205.679 34.136 204.999 34.102L205.322 35.309H207.277C208.467 35.309 209.062 34.714 209.062 33.524V20.791H196.397V28.951C196.363 31.28 195.802 33.201 194.714 34.714L195.649 35.547C196.737 34.119 197.366 32.317 197.553 30.141ZM207.821 29.019H203.197V26.044H207.821V29.019ZM207.821 24.905H203.197V21.981H207.821V24.905ZM201.939 21.981V24.905H197.621V21.981H201.939ZM217.528 30.328C217.222 31.348 216.797 32.181 216.219 32.827C215.539 33.524 214.536 34.17 213.21 34.748L213.975 35.717C215.437 35.02 216.525 34.238 217.256 33.388C217.851 32.623 218.327 31.603 218.667 30.328H222.832C222.764 32.062 222.611 33.184 222.373 33.728C222.135 34.238 221.659 34.493 220.945 34.493C220.231 34.493 219.483 34.476 218.684 34.442L219.007 35.581H221.54C222.237 35.547 222.747 35.343 223.07 34.986C223.393 34.612 223.631 33.949 223.767 32.997C223.886 32.062 223.971 30.838 224.022 29.342C224.736 29.92 225.569 30.498 226.555 31.059L227.337 30.056C225.365 29.138 223.954 28.084 223.087 26.928H226.81V25.806H218.361C218.701 25.228 219.024 24.599 219.296 23.936H225.875V22.848H223.206C223.784 22.134 224.26 21.318 224.651 20.366L223.631 19.992C223.274 20.893 222.832 21.675 222.288 22.355L223.155 22.848H219.704C219.976 21.998 220.197 21.08 220.367 20.094L219.16 19.941C218.99 20.961 218.769 21.93 218.463 22.848H213.125V23.936H218.021C217.732 24.582 217.392 25.211 217.001 25.806H212.19V26.928H216.134C214.961 28.254 213.465 29.308 211.663 30.09L212.343 31.127C213.329 30.651 214.264 30.073 215.131 29.41V30.328H217.528ZM217.596 26.928H221.846C222.322 27.71 222.985 28.458 223.869 29.206H215.403C216.219 28.543 216.95 27.778 217.596 26.928ZM215.556 20.094L214.502 20.434C214.978 21.131 215.403 21.93 215.811 22.831L216.797 22.372C216.457 21.556 216.032 20.808 215.556 20.094Z" fill="black"/>
<path d="M130.2 50.516H134.964V51.824H130.2V50.516ZM134.964 52.58V53.852H130.2V52.58H134.964ZM134.964 54.608V55.976C134.964 56.264 134.808 56.408 134.496 56.408C134.1 56.408 133.668 56.384 133.212 56.36L133.428 57.152H134.772C135.444 57.128 135.78 56.828 135.78 56.24V49.76H130.212C130.5 49.316 130.752 48.848 130.992 48.368H137.316V47.528H131.352C131.52 47.108 131.664 46.676 131.808 46.232L130.932 46.124C130.788 46.592 130.608 47.06 130.404 47.528H126.828V48.368H130.008C129.18 49.916 128.016 51.284 126.504 52.484L127.068 53.216C127.932 52.52 128.712 51.74 129.384 50.9V57.176H130.2V54.608H134.964ZM140.22 48.848C139.728 49.916 139.14 50.828 138.468 51.584L139.164 52.088C139.848 51.272 140.448 50.324 140.964 49.22L140.22 48.848ZM143.376 51.08L143.94 50.504C143.304 49.736 142.752 49.16 142.272 48.776L141.744 49.292C142.284 49.796 142.824 50.384 143.376 51.08ZM140.172 51.8L139.632 52.412C140.136 52.82 140.652 53.276 141.156 53.78C140.448 54.872 139.536 55.724 138.42 56.336L138.948 57.104C140.1 56.444 141.036 55.544 141.78 54.416C142.188 54.848 142.62 55.316 143.052 55.832L143.664 55.148C143.208 54.62 142.728 54.116 142.224 53.624C142.548 53 142.824 52.304 143.04 51.56L142.296 51.248C142.104 51.872 141.864 52.46 141.588 53.012C141.132 52.592 140.664 52.184 140.172 51.8ZM141.408 46.112L140.508 46.256C140.724 46.628 140.928 47.036 141.108 47.468H138.648V48.296H144.204V47.468H141.948C141.768 46.964 141.588 46.52 141.408 46.112ZM145.788 48.98H147.576C147.528 50.504 147.204 51.848 146.628 53.024C146.172 52.112 145.8 51.044 145.512 49.82C145.608 49.556 145.692 49.268 145.788 48.98ZM146.16 53.84C145.452 54.908 144.456 55.772 143.184 56.444L143.676 57.224C144.876 56.54 145.86 55.676 146.616 54.644C147.288 55.724 148.104 56.576 149.064 57.188L149.568 56.432C148.608 55.844 147.78 54.992 147.096 53.888C147.876 52.52 148.296 50.888 148.368 48.98H149.388V48.14H146.016C146.148 47.564 146.268 46.952 146.364 46.28L145.5 46.136C145.212 48.38 144.636 50.156 143.796 51.476L144.348 52.136C144.588 51.776 144.828 51.392 145.044 50.96C145.344 52.016 145.716 52.976 146.16 53.84ZM151.5 46.232V47.576H150.756V48.38H151.5V53.456H150.624V54.272H156.3V53.456H155.52V48.38H156.24V47.576H155.52V46.256H154.68V47.576H152.34V46.232H151.5ZM152.34 53.456V52.28H154.68V53.456H152.34ZM154.68 48.38V49.58H152.34V48.38H154.68ZM152.34 51.524V50.336H154.68V51.524H152.34ZM154.464 54.584L153.792 55.004C154.332 55.724 154.764 56.396 155.076 57.008L155.712 56.552C155.7 56.576 155.688 56.6 155.664 56.624L156.324 57.236C157.116 56.18 157.596 54.872 157.764 53.288H160.092V55.748C160.092 56.108 159.936 56.288 159.624 56.288C159.24 56.288 158.832 56.264 158.388 56.24L158.628 57.092H159.9C160.596 57.092 160.956 56.744 160.956 56.06V46.652H156.972V52.268C156.948 53.948 156.552 55.352 155.76 56.468C155.46 55.94 155.028 55.304 154.464 54.584ZM152.124 54.572C151.68 55.388 151.152 56.084 150.552 56.672L151.236 57.164C151.836 56.528 152.364 55.772 152.82 54.908L152.124 54.572ZM157.824 50.36H160.092V52.496H157.812C157.812 52.4 157.824 52.304 157.824 52.196V50.36ZM160.092 49.568H157.824V47.468H160.092V49.568ZM162.996 46.784V47.624H166.344C165.528 48.968 164.532 49.988 163.356 50.66L163.584 51.416C166.164 51.284 168.684 51.032 171.132 50.648C171.432 51.044 171.708 51.428 171.96 51.812L172.668 51.308C172.08 50.432 171.228 49.4 170.112 48.224L169.416 48.668C169.8 49.076 170.172 49.496 170.532 49.928C168.708 50.228 166.812 50.432 164.868 50.552C165.792 49.808 166.62 48.836 167.34 47.624H172.956V46.784H162.996ZM163.56 53.048V53.876H167.556V55.88H162.72V56.72H173.28V55.88H168.444V53.876H172.38V53.048H168.444V51.656H167.556V53.048H163.56ZM181.716 47.264C180.852 47.264 180.144 47.552 179.616 48.128C179.088 48.692 178.812 49.46 178.812 50.42H179.796C179.808 49.664 179.988 49.088 180.324 48.704C180.636 48.296 181.092 48.104 181.68 48.104C182.232 48.104 182.676 48.248 182.988 48.536C183.3 48.824 183.456 49.22 183.456 49.748C183.456 50.3 183.228 50.816 182.796 51.284C182.568 51.524 182.124 51.872 181.452 52.352C180.54 52.976 179.928 53.492 179.592 53.876C179.016 54.512 178.74 55.22 178.74 56H184.452V55.124H179.952C180.108 54.548 180.732 53.888 181.824 53.156C182.712 52.556 183.3 52.088 183.6 51.776C184.152 51.176 184.44 50.504 184.44 49.76C184.44 49.016 184.176 48.404 183.672 47.948C183.156 47.492 182.508 47.264 181.716 47.264ZM188.791 47.264C187.759 47.264 186.991 47.708 186.475 48.62C186.019 49.388 185.791 50.42 185.791 51.716C185.791 53.012 186.019 54.044 186.475 54.812C186.991 55.712 187.759 56.168 188.791 56.168C189.811 56.168 190.579 55.712 191.107 54.812C191.563 54.044 191.791 53.012 191.791 51.716C191.791 50.42 191.563 49.388 191.107 48.62C190.579 47.708 189.811 47.264 188.791 47.264ZM188.791 48.104C189.559 48.104 190.111 48.512 190.447 49.34C190.687 49.916 190.819 50.708 190.819 51.716C190.819 52.712 190.687 53.504 190.447 54.092C190.111 54.908 189.559 55.328 188.791 55.328C188.023 55.328 187.471 54.908 187.135 54.092C186.895 53.504 186.775 52.712 186.775 51.716C186.775 50.708 186.895 49.916 187.135 49.34C187.471 48.512 188.023 48.104 188.791 48.104ZM196.107 47.264C195.243 47.264 194.535 47.552 194.007 48.128C193.479 48.692 193.203 49.46 193.203 50.42H194.187C194.199 49.664 194.379 49.088 194.715 48.704C195.027 48.296 195.483 48.104 196.071 48.104C196.623 48.104 197.067 48.248 197.379 48.536C197.691 48.824 197.847 49.22 197.847 49.748C197.847 50.3 197.619 50.816 197.187 51.284C196.959 51.524 196.515 51.872 195.843 52.352C194.931 52.976 194.319 53.492 193.983 53.876C193.407 54.512 193.131 55.22 193.131 56H198.843V55.124H194.343C194.499 54.548 195.123 53.888 196.215 53.156C197.103 52.556 197.691 52.088 197.991 51.776C198.543 51.176 198.831 50.504 198.831 49.76C198.831 49.016 198.567 48.404 198.063 47.948C197.547 47.492 196.899 47.264 196.107 47.264ZM202.342 47.432C202.054 47.756 201.718 48.044 201.31 48.308C200.902 48.548 200.494 48.716 200.11 48.824V49.808C200.914 49.568 201.586 49.184 202.126 48.632V56H203.11V47.432H202.342ZM204.998 52.484V53.3H211.058V52.484H204.998ZM214.424 47.432C214.136 47.756 213.8 48.044 213.392 48.308C212.984 48.548 212.576 48.716 212.192 48.824V49.808C212.996 49.568 213.668 49.184 214.208 48.632V56H215.192V47.432H214.424ZM220.2 47.264C219.336 47.264 218.628 47.552 218.1 48.128C217.572 48.692 217.296 49.46 217.296 50.42H218.28C218.292 49.664 218.472 49.088 218.808 48.704C219.12 48.296 219.576 48.104 220.164 48.104C220.716 48.104 221.16 48.248 221.472 48.536C221.784 48.824 221.94 49.22 221.94 49.748C221.94 50.3 221.712 50.816 221.28 51.284C221.052 51.524 220.608 51.872 219.936 52.352C219.024 52.976 218.412 53.492 218.076 53.876C217.5 54.512 217.224 55.22 217.224 56H222.936V55.124H218.436C218.592 54.548 219.216 53.888 220.308 53.156C221.196 52.556 221.784 52.088 222.084 51.776C222.636 51.176 222.924 50.504 222.924 49.76C222.924 49.016 222.66 48.404 222.156 47.948C221.64 47.492 220.992 47.264 220.2 47.264ZM224.276 52.484V53.3H230.336V52.484H224.276ZM234.625 47.264C233.809 47.264 233.149 47.492 232.645 47.96C232.117 48.428 231.805 49.076 231.733 49.904H232.705C232.765 49.328 232.957 48.884 233.293 48.572C233.617 48.26 234.061 48.116 234.637 48.116C235.189 48.116 235.633 48.248 235.945 48.536C236.233 48.8 236.389 49.172 236.389 49.652C236.389 50.132 236.233 50.504 235.933 50.768C235.633 51.02 235.201 51.152 234.625 51.152H233.965V51.92H234.661C235.261 51.92 235.717 52.052 236.053 52.34C236.389 52.628 236.557 53.024 236.557 53.54C236.557 54.044 236.377 54.464 236.041 54.8C235.669 55.148 235.177 55.328 234.565 55.328C234.025 55.328 233.581 55.172 233.221 54.884C232.801 54.536 232.573 54.02 232.549 53.348H231.553C231.625 54.308 231.961 55.04 232.573 55.544C233.089 55.952 233.749 56.168 234.565 56.168C235.453 56.168 236.173 55.916 236.725 55.412C237.265 54.92 237.541 54.284 237.541 53.504C237.541 53 237.397 52.58 237.109 52.244C236.845 51.908 236.461 51.668 235.957 51.512C236.893 51.2 237.361 50.552 237.361 49.592C237.361 48.872 237.109 48.308 236.617 47.888C236.113 47.468 235.441 47.264 234.625 47.264ZM241.737 47.264C240.705 47.264 239.937 47.708 239.421 48.62C238.965 49.388 238.737 50.42 238.737 51.716C238.737 53.012 238.965 54.044 239.421 54.812C239.937 55.712 240.705 56.168 241.737 56.168C242.757 56.168 243.525 55.712 244.053 54.812C244.509 54.044 244.737 53.012 244.737 51.716C244.737 50.42 244.509 49.388 244.053 48.62C243.525 47.708 242.757 47.264 241.737 47.264ZM241.737 48.104C242.505 48.104 243.057 48.512 243.393 49.34C243.633 49.916 243.765 50.708 243.765 51.716C243.765 52.712 243.633 53.504 243.393 54.092C243.057 54.908 242.505 55.328 241.737 55.328C240.969 55.328 240.417 54.908 240.081 54.092C239.841 53.504 239.721 52.712 239.721 51.716C239.721 50.708 239.841 49.916 240.081 49.34C240.417 48.512 240.969 48.104 241.737 48.104Z" fill="#BBBBBB"/>
<rect x="126.5" y="76.5" width="59" height="23" rx="11.5" stroke="#0EBD8D"/>
<path d="M146.088 88.64L145.392 89.084C146.028 89.924 146.604 90.728 147.108 91.496C145.956 91.64 143.916 91.82 141.012 92.048C141.888 91.196 142.752 89.876 143.604 88.076H149.328V87.236H144.444V84.968H148.56V84.128H144.444V82.22H143.556V84.128H139.416V84.968H143.556V87.236H138.66V88.076H142.644C141.564 90.236 140.508 91.592 139.476 92.156L139.632 92.864C142.128 92.72 144.768 92.504 147.552 92.216C147.768 92.576 147.972 92.936 148.164 93.284L148.896 92.768C148.248 91.592 147.312 90.224 146.088 88.64ZM154.104 83.42V84.248H157.248V85.388H154.512V88.784H157.2C157.128 89.624 156.96 90.308 156.708 90.836C156.072 90.38 155.496 89.84 154.98 89.192L154.32 89.648C154.872 90.356 155.508 90.968 156.216 91.472C155.664 92 154.764 92.336 153.54 92.468L153.912 93.26C155.304 93.056 156.324 92.624 156.972 91.964C158.244 92.708 159.72 93.128 161.4 93.236L161.616 92.408C160.044 92.324 158.652 91.952 157.452 91.292C157.776 90.692 157.98 89.864 158.076 88.784H160.932V85.388H158.124V84.248H161.424V83.42H158.124V82.196H157.248V83.42H154.104ZM160.116 88.004H158.112C158.112 87.908 158.124 87.812 158.124 87.716V86.156H160.116V88.004ZM157.236 88.004H155.328V86.156H157.248V87.716C157.248 87.812 157.236 87.908 157.236 88.004ZM151.908 86.528V93.224H152.772V85.148C153.216 84.32 153.588 83.432 153.888 82.496L153.072 82.124C152.52 84.02 151.62 85.7 150.372 87.164L150.66 88.076C151.116 87.584 151.524 87.068 151.908 86.528ZM164.556 86.384H167.604V88.484H164.556V86.384ZM164.508 89.276H167.604V92.792H168.492V89.276H171.756V91.364C171.756 91.868 171.528 92.12 171.096 92.12C170.688 92.12 170.244 92.096 169.764 92.072L169.992 92.924H171.372C172.212 92.924 172.632 92.504 172.632 91.664V82.676H163.692V88.436C163.668 90.08 163.272 91.436 162.504 92.504L163.164 93.092C163.932 92.084 164.376 90.812 164.508 89.276ZM171.756 88.484H168.492V86.384H171.756V88.484ZM171.756 85.58H168.492V83.516H171.756V85.58ZM167.604 83.516V85.58H164.556V83.516H167.604Z" fill="#0EBD8D"/>
<g clip-path="url(#clip1_33_1266)">
<rect x="313.728" y="-14" width="61.5907" height="18" rx="2" transform="rotate(45 313.728 -14)" fill="#FC7C00"/>
<path d="M327.732 6.97656C326.749 6.58765 325.816 5.97954 324.946 5.13808L321.92 8.1645C320.81 9.20394 319.742 9.81913 318.717 10.01L318.695 10.7525C319.926 10.5404 321.163 9.84034 322.415 8.65947L323.256 7.81801L324.303 8.86453L320.527 12.6405L321.029 13.1425L324.805 9.36658L325.54 10.102L326.028 9.61406L323.744 7.33011L325.031 6.04317C325.837 6.76442 326.671 7.30183 327.534 7.68366L327.732 6.97656ZM321.297 1.63083L320.831 2.09752L324.02 5.28657L324.487 4.81988L323.15 3.48345C323.306 3.12989 323.44 2.79755 323.546 2.47936L322.938 2.04095C322.874 2.34501 322.775 2.65613 322.648 2.9814L321.297 1.63083ZM319.622 3.16525L319.162 3.62487L320.59 5.05323L319.798 5.84519L318.483 4.52997L318.016 4.99666L319.332 6.31188L317.451 8.19278C317.281 8.36249 317.104 8.35541 316.92 8.17157C316.821 8.07257 316.73 7.95236 316.638 7.81801L316.27 8.39784L316.652 8.77968C317.062 9.1898 317.458 9.20394 317.84 8.8221L319.841 6.82099L321.085 8.0655L321.552 7.59881L320.308 6.3543L321.099 5.56234L322.464 6.92706L322.924 6.46744L322.125 5.66841C322.5 5.56234 322.896 5.40678 323.313 5.21586L323.009 4.60068C322.563 4.83402 322.118 5.03908 321.665 5.20879L320.887 4.43097C321.156 3.936 321.347 3.49052 321.474 3.09454L320.859 2.80463C320.753 3.19353 320.612 3.58951 320.435 3.97842L319.622 3.16525ZM318.13 5.87347C317.352 6.34016 316.546 6.66543 315.704 6.84221L315.86 7.53517C316.715 7.33011 317.599 6.96948 318.497 6.43915L318.13 5.87347ZM320.209 7.85337L319.671 7.54224C319.445 8.1645 319.169 8.76554 318.858 9.34536L319.445 9.60699C319.714 9.11202 319.961 8.52512 320.209 7.85337ZM328.432 8.62411L327.973 9.08373L329.627 10.7384L329.111 11.2546L329.634 11.7778L330.15 11.2616L332.017 13.1284L331.501 13.6446L332.024 14.1678L332.54 13.6516L334.195 15.3063L334.655 14.8467L333 13.192L333.58 12.6122L333.057 12.0889L332.477 12.6688L330.61 10.802L331.19 10.2222L330.667 9.69892L330.087 10.2787L328.432 8.62411ZM329.274 11.7566C328.828 11.8202 328.397 11.8415 327.98 11.8344C328.029 11.3748 327.994 10.901 327.881 10.4202L327.188 10.3636C327.315 10.8303 327.357 11.3111 327.315 11.7778C326.735 11.7071 326.162 11.5445 325.583 11.304L325.427 11.997C326.07 12.2162 326.657 12.3647 327.181 12.4496C327.096 12.7607 326.961 13.0647 326.785 13.3829C325.986 13.4324 325.102 13.2839 324.154 12.9304L324.013 13.6234C324.805 13.8779 325.59 14.0123 326.36 14.0052C326.191 14.2315 325.993 14.4577 325.766 14.684C325.293 15.1436 324.946 15.4053 324.713 15.4689C324.529 15.5113 324.338 15.4477 324.161 15.2709C323.921 15.0305 323.702 14.783 323.504 14.5426L323.178 15.1507C323.341 15.3275 323.553 15.5538 323.836 15.8366C324.098 16.0982 324.366 16.2255 324.642 16.2184C325.066 16.1619 325.59 15.8225 326.212 15.2002C327.067 14.3446 327.612 13.4466 327.852 12.5132C328.333 12.5415 328.856 12.5132 329.436 12.4425L329.274 11.7566ZM328.574 13.5314L328.093 14.0123L329.521 15.4406C328.361 16.3457 326.94 16.7205 325.25 16.572L325.222 17.2791C326.643 17.4276 327.98 17.166 329.217 16.4942C328.524 17.7246 328.284 19.0539 328.482 20.4823L329.203 20.4399C328.934 18.9267 329.245 17.4559 330.108 16.0275L331.692 17.6114L332.173 17.1306L330.546 15.5043C331.006 15.0588 331.409 14.6699 331.741 14.3375L331.232 13.8284C330.957 14.1042 330.553 14.4931 330.03 14.9881L328.574 13.5314ZM332.597 14.8962L331.982 14.7477C331.996 15.4265 331.954 16.0063 331.869 16.4871L332.519 16.6003C332.583 16.1548 332.611 15.5891 332.597 14.8962ZM333.368 19.4994L330.398 22.4693L330.893 22.9642L334.4 19.457C334.959 19.3934 335.489 19.2731 336.005 19.0964L335.765 18.46C334.718 18.8277 333.53 18.9125 332.222 18.7216L331.883 19.358C332.392 19.4428 332.887 19.4853 333.368 19.4994ZM337.54 16.6286C336.55 16.9397 335.425 16.975 334.167 16.7346L333.82 17.3781C335.298 17.668 336.613 17.6256 337.766 17.2508L337.54 16.6286ZM338.211 17.8094L335.956 20.0651L339.3 23.4097L341.556 21.154L338.211 17.8094ZM339.223 22.5117L336.854 20.1429L337.377 19.6196L339.746 21.9884L339.223 22.5117ZM337.766 19.2307L338.289 18.7075L340.658 21.0763L340.135 21.5995L337.766 19.2307ZM335.143 20.256L334.697 20.7015L337.419 23.4239L336.818 24.0249L333.842 21.048L333.396 21.4935L336.373 24.4704L335.136 25.7078C334.966 25.8775 334.775 25.8704 334.584 25.6795C334.358 25.4533 334.139 25.2058 333.905 24.93L333.53 25.5169L334.315 26.3018C334.725 26.7119 335.128 26.719 335.517 26.3301L336.875 24.9724L337.893 25.9907L338.339 25.5452L337.321 24.5269L337.922 23.9259L338.777 24.7815L339.223 24.336L335.143 20.256ZM334.181 22.7026L333.552 22.5965C333.552 23.3319 333.502 23.9895 333.41 24.5482L334.068 24.6684C334.16 24.1522 334.195 23.4946 334.181 22.7026Z" fill="white"/>
</g>
</g>
<rect x="0.5" y="0.5" width="342" height="115" rx="7.5" stroke="#0EBD8D"/>
<defs>
<clipPath id="clip0_33_1266">
<rect width="343" height="116" rx="8" fill="white"/>
</clipPath>
<clipPath id="clip1_33_1266">
<rect x="313.728" y="-14" width="61.5907" height="18" rx="2" transform="rotate(45 313.728 -14)" fill="white"/>
</clipPath>
</defs>
</svg>
