<svg width="343" height="120" viewBox="0 0 343 120" fill="none" xmlns="http://www.w3.org/2000/svg">
<rect x="0.5" y="0.5" width="342" height="119" rx="7.5" fill="white"/>
<rect x="0.5" y="0.5" width="342" height="119" rx="7.5" stroke="#0EBD8D"/>
<rect width="110" height="120" fill="#4DD865" fill-opacity="0.1"/>
<path d="M31.154 53.004L33.884 57.918H32.036V58.786H34.374L34.388 58.8V60.004H32.036V60.872H34.388V63H36.012V60.872H38.378V60.004H36.012V58.8L36.026 58.786H38.378V57.918H36.516L39.246 53.004H37.398L35.2 57.302L33.002 53.004H31.154Z" fill="#0EBD8D"/>
<path d="M43.04 41.652L41.792 54.452H45.056C45.504 53.62 46.112 53.012 46.944 52.628C47.712 52.244 48.576 52.084 49.6 52.084C51.136 52.084 52.288 52.532 53.12 53.428C53.952 54.324 54.368 55.572 54.368 57.172C54.368 58.644 53.888 59.796 52.928 60.692C51.968 61.556 50.784 62.004 49.376 62.004C48.096 62.004 47.072 61.716 46.304 61.14C45.44 60.5 44.928 59.508 44.8 58.228H41.376C41.536 60.34 42.432 62.036 44.064 63.252C45.536 64.372 47.296 64.948 49.344 64.948C51.616 64.948 53.568 64.276 55.2 62.932C56.928 61.428 57.824 59.508 57.824 57.14C57.824 54.676 57.12 52.756 55.776 51.348C54.432 49.94 52.672 49.236 50.528 49.236C49.504 49.236 48.544 49.396 47.712 49.748C46.784 50.068 45.984 50.58 45.28 51.316H45.184L45.856 44.724H56.8V41.652H43.04ZM68.7875 41.204C66.0995 41.204 64.0195 42.324 62.5475 44.596C61.2035 46.676 60.5315 49.492 60.5315 53.076C60.5315 56.628 61.2035 59.444 62.5475 61.556C64.0195 63.796 66.0995 64.948 68.7875 64.948C71.4755 64.948 73.5555 63.796 75.0275 61.556C76.3715 59.444 77.0435 56.596 77.0435 53.076C77.0435 49.524 76.3715 46.708 75.0275 44.596C73.5555 42.324 71.4755 41.204 68.7875 41.204ZM68.7875 44.148C70.6435 44.148 71.9875 45.172 72.7555 47.252C73.2995 48.66 73.5875 50.612 73.5875 53.076C73.5875 55.508 73.2995 57.46 72.7555 58.9C71.9875 60.948 70.6435 62.004 68.7875 62.004C66.8995 62.004 65.5875 60.948 64.8195 58.9C64.2435 57.46 63.9875 55.508 63.9875 53.076C63.9875 50.612 64.2435 48.66 64.8195 47.252C65.5875 45.172 66.8995 44.148 68.7875 44.148Z" fill="#0EBD8D"/>
<path d="M25.17 78.43L24.65 78.93C25.33 79.47 25.86 79.99 26.24 80.47L26.75 79.96C26.32 79.45 25.79 78.94 25.17 78.43ZM24.92 80.87L24.41 81.37C25.15 81.91 25.72 82.42 26.13 82.9L26.64 82.4C26.18 81.89 25.6 81.38 24.92 80.87ZM26.11 83.52C25.69 84.74 25.18 85.94 24.6 87.11L25.27 87.41C25.81 86.27 26.3 85.05 26.74 83.76L26.11 83.52ZM26.92 80.96V81.62H29V82.69H27.32V87.45H27.97V83.33H28.99C28.93 84.24 28.62 85.06 28.07 85.8L28.55 86.22C28.99 85.62 29.29 84.96 29.46 84.24C29.62 84.52 29.82 84.88 30.04 85.32L30.37 84.83C30.09 84.42 29.81 84.05 29.55 83.71C29.57 83.59 29.58 83.46 29.59 83.33H30.91C30.89 84.46 30.52 85.47 29.81 86.35L30.28 86.77C30.85 86.05 31.22 85.25 31.4 84.38C31.56 84.68 31.76 85.08 31.99 85.58L32.32 85.09C32.03 84.63 31.75 84.22 31.48 83.84C31.5 83.68 31.51 83.51 31.51 83.33H32.53V86.37C32.53 86.65 32.39 86.8 32.13 86.8L31.33 86.77L31.51 87.41H32.34C32.9 87.41 33.18 87.11 33.18 86.51V82.69H31.51V81.62H33.49V80.96H26.92ZM29.6 82.69V81.62H30.91V82.69H29.6ZM27.14 79.15V79.83H28.64V80.54H29.34V79.83H31.06V80.53H31.76V79.83H33.34V79.15H31.76V78.36H31.06V79.15H29.34V78.36H28.64V79.15H27.14Z" fill="#0EBD8D"/>
<path d="M39 79.22C38.25 79.22 37.67 79.41 37.25 79.8C36.86 80.15 36.67 80.59 36.67 81.11C36.67 81.49 36.76 81.81 36.94 82.07C37.13 82.35 37.41 82.56 37.79 82.69V82.71C37.41 82.8 37.1 83.01 36.84 83.33C36.56 83.67 36.42 84.07 36.42 84.53C36.42 85.16 36.64 85.67 37.08 86.05C37.53 86.44 38.17 86.64 39 86.64C39.82 86.64 40.46 86.44 40.92 86.05C41.36 85.67 41.58 85.16 41.58 84.53C41.58 84.07 41.44 83.67 41.16 83.33C40.9 83.01 40.58 82.8 40.21 82.71V82.69C40.58 82.56 40.86 82.35 41.06 82.07C41.24 81.81 41.33 81.49 41.33 81.11C41.33 80.59 41.13 80.15 40.75 79.8C40.33 79.41 39.74 79.22 39 79.22ZM39 79.89C39.5 79.89 39.9 80.02 40.19 80.28C40.43 80.5 40.56 80.79 40.56 81.14C40.56 81.5 40.45 81.8 40.23 82.02C39.96 82.28 39.55 82.42 39 82.42C38.44 82.42 38.03 82.28 37.77 82.02C37.55 81.8 37.44 81.5 37.44 81.14C37.44 80.79 37.56 80.5 37.81 80.28C38.09 80.02 38.49 79.89 39 79.89ZM39 83.06C39.57 83.06 40.02 83.2 40.34 83.49C40.62 83.75 40.77 84.1 40.77 84.53C40.77 84.95 40.62 85.29 40.34 85.55C40.02 85.83 39.58 85.97 39 85.97C38.42 85.97 37.97 85.83 37.67 85.56C37.37 85.3 37.23 84.95 37.23 84.53C37.23 84.1 37.37 83.75 37.67 83.49C37.98 83.2 38.42 83.06 39 83.06ZM44.9961 79.22C44.1361 79.22 43.4961 79.59 43.0661 80.35C42.6861 80.99 42.4961 81.85 42.4961 82.93C42.4961 84.01 42.6861 84.87 43.0661 85.51C43.4961 86.26 44.1361 86.64 44.9961 86.64C45.8461 86.64 46.4861 86.26 46.9261 85.51C47.3061 84.87 47.4961 84.01 47.4961 82.93C47.4961 81.85 47.3061 80.99 46.9261 80.35C46.4861 79.59 45.8461 79.22 44.9961 79.22ZM44.9961 79.92C45.6361 79.92 46.0961 80.26 46.3761 80.95C46.5761 81.43 46.6861 82.09 46.6861 82.93C46.6861 83.76 46.5761 84.42 46.3761 84.91C46.0961 85.59 45.6361 85.94 44.9961 85.94C44.3561 85.94 43.8961 85.59 43.6161 84.91C43.4161 84.42 43.3161 83.76 43.3161 82.93C43.3161 82.09 43.4161 81.43 43.6161 80.95C43.8961 80.26 44.3561 79.92 44.9961 79.92ZM50.9922 79.22C50.1322 79.22 49.4922 79.59 49.0622 80.35C48.6822 80.99 48.4922 81.85 48.4922 82.93C48.4922 84.01 48.6822 84.87 49.0622 85.51C49.4922 86.26 50.1322 86.64 50.9922 86.64C51.8422 86.64 52.4822 86.26 52.9222 85.51C53.3022 84.87 53.4922 84.01 53.4922 82.93C53.4922 81.85 53.3022 80.99 52.9222 80.35C52.4822 79.59 51.8422 79.22 50.9922 79.22ZM50.9922 79.92C51.6322 79.92 52.0922 80.26 52.3722 80.95C52.5722 81.43 52.6822 82.09 52.6822 82.93C52.6822 83.76 52.5722 84.42 52.3722 84.91C52.0922 85.59 51.6322 85.94 50.9922 85.94C50.3522 85.94 49.8922 85.59 49.6122 84.91C49.4122 84.42 49.3122 83.76 49.3122 82.93C49.3122 82.09 49.4122 81.43 49.6122 80.95C49.8922 80.26 50.3522 79.92 50.9922 79.92Z" fill="#0EBD8D"/>
<path d="M57.5 78.89V79.59H64.41V78.89H57.5ZM56.73 81.83V82.53H59.32V82.68C59.3 83.77 59.08 84.66 58.68 85.34C58.25 86 57.5 86.52 56.42 86.92L56.81 87.53C57.92 87.12 58.72 86.55 59.22 85.82C59.72 85.03 59.99 83.98 60.02 82.68V82.53H61.82V86.41C61.82 87.03 62.13 87.34 62.76 87.34H64.21C64.57 87.34 64.84 87.23 65.01 87.03C65.21 86.8 65.34 86.14 65.41 85.05L64.75 84.84C64.71 85.74 64.64 86.28 64.52 86.46C64.44 86.61 64.29 86.69 64.07 86.69H62.96C62.66 86.69 62.52 86.54 62.52 86.26V82.53H65.28V81.83H56.73ZM66.55 78.93V79.63H73.43V86.25C73.43 86.59 73.26 86.77 72.94 86.77C72.44 86.77 71.91 86.75 71.36 86.73L71.52 87.43H73.19C73.83 87.43 74.15 87.09 74.15 86.43V79.63H75.47V78.93H66.55ZM71.6 81.16H67.71V85.71H68.41V84.83H71.6V81.16ZM68.41 84.17V81.81H70.91V84.17H68.41ZM78.13 81.82H80.67V83.57H78.13V81.82ZM78.09 84.23H80.67V87.16H81.41V84.23H84.13V85.97C84.13 86.39 83.94 86.6 83.58 86.6C83.24 86.6 82.87 86.58 82.47 86.56L82.66 87.27H83.81C84.51 87.27 84.86 86.92 84.86 86.22V78.73H77.41V83.53C77.39 84.9 77.06 86.03 76.42 86.92L76.97 87.41C77.61 86.57 77.98 85.51 78.09 84.23ZM84.13 83.57H81.41V81.82H84.13V83.57ZM84.13 81.15H81.41V79.43H84.13V81.15ZM80.67 79.43V81.15H78.13V79.43H80.67Z" fill="#0EBD8D"/>
<path d="M134.058 22.162C132.086 24.304 129.604 26.106 126.612 27.551L127.207 28.622C130.216 27.109 132.647 25.324 134.5 23.267C136.506 25.426 138.903 27.177 141.725 28.537L142.337 27.449C139.549 26.157 137.084 24.406 134.942 22.162H134.058ZM129.757 27.534V28.707H133.871V31.665H128.941V32.838H133.871V35.983H127.428V37.19H141.589V35.983H135.129V32.838H140.042V31.665H135.129V28.707H139.243V27.534H129.757ZM144.649 22.876V24.066H150.803V30.492H143.969V31.665H150.803V37.683H152.061V31.665H159.031V30.492H152.061V24.066H158.385V22.876H144.649ZM146.723 25.154L145.584 25.715C146.23 26.854 146.842 28.146 147.42 29.608L148.559 29.047C147.981 27.636 147.369 26.344 146.723 25.154ZM156.362 25.069C155.869 26.361 155.206 27.653 154.373 28.979L155.461 29.54C156.294 28.248 156.974 26.939 157.484 25.596L156.362 25.069ZM174.178 30.628H162.822V37.717H164.063V36.867H172.937V37.717H174.178V30.628ZM164.063 35.694V31.801H172.937V35.694H164.063ZM161.615 28.877C166.035 28.707 170.03 28.469 173.617 28.146C174.025 28.792 174.45 29.455 174.875 30.169L176.065 29.591C174.807 27.534 173.447 25.647 171.985 23.947L170.88 24.474C171.56 25.256 172.223 26.123 172.869 27.041C169.945 27.313 166.851 27.534 163.587 27.67C165.117 26.412 166.664 24.678 168.194 22.502L166.936 22.077C164.726 25.324 162.873 27.211 161.377 27.721L161.615 28.877ZM179.142 22.383L178.309 23.182C179.55 24.134 180.519 25.035 181.233 25.885L182.1 25.035C181.301 24.151 180.315 23.267 179.142 22.383ZM189.087 37.394H192.946L193.235 36.17C192.793 36.204 192.164 36.221 191.348 36.238C190.515 36.255 189.699 36.272 188.917 36.272C187.574 36.272 186.452 36.255 185.551 36.238C184.531 36.204 183.766 36.068 183.222 35.83C182.746 35.609 182.304 35.252 181.896 34.759C181.743 34.589 181.607 34.47 181.471 34.368V28.01H177.918V29.132H180.332V34.3C179.635 34.606 178.836 35.473 177.935 36.901L178.853 37.734C179.788 36.17 180.468 35.388 180.876 35.388C181.08 35.388 181.301 35.524 181.539 35.813C182.066 36.425 182.678 36.85 183.358 37.054C184.038 37.241 184.939 37.343 186.044 37.36C187.132 37.377 188.152 37.394 189.087 37.394ZM186.044 24.015L185.296 24.746C186.129 25.188 186.877 25.647 187.523 26.106H183.273V35.15H184.429V32.175H187.268V35.099H188.407V32.175H191.263V33.45C191.263 33.824 191.059 34.028 190.651 34.028L189.308 33.977L189.58 35.014H190.991C191.943 35.014 192.419 34.572 192.419 33.705V26.106H189.053L188.781 25.885C189.971 25.239 191.076 24.474 192.096 23.59V22.706H182.899V23.743H190.447C189.699 24.321 188.883 24.831 187.999 25.29C187.421 24.865 186.758 24.44 186.044 24.015ZM184.429 29.676H187.268V31.172H184.429V29.676ZM188.407 29.676H191.263V31.172H188.407V29.676ZM191.263 28.656H188.407V27.126H191.263V28.656ZM187.268 28.656H184.429V27.126H187.268V28.656ZM197.621 28.044H201.939V31.019H197.621V28.044ZM197.553 32.141H201.939V37.122H203.197V32.141H207.821V35.099C207.821 35.813 207.498 36.17 206.886 36.17C206.308 36.17 205.679 36.136 204.999 36.102L205.322 37.309H207.277C208.467 37.309 209.062 36.714 209.062 35.524V22.791H196.397V30.951C196.363 33.28 195.802 35.201 194.714 36.714L195.649 37.547C196.737 36.119 197.366 34.317 197.553 32.141ZM207.821 31.019H203.197V28.044H207.821V31.019ZM207.821 26.905H203.197V23.981H207.821V26.905ZM201.939 23.981V26.905H197.621V23.981H201.939ZM217.528 32.328C217.222 33.348 216.797 34.181 216.219 34.827C215.539 35.524 214.536 36.17 213.21 36.748L213.975 37.717C215.437 37.02 216.525 36.238 217.256 35.388C217.851 34.623 218.327 33.603 218.667 32.328H222.832C222.764 34.062 222.611 35.184 222.373 35.728C222.135 36.238 221.659 36.493 220.945 36.493C220.231 36.493 219.483 36.476 218.684 36.442L219.007 37.581H221.54C222.237 37.547 222.747 37.343 223.07 36.986C223.393 36.612 223.631 35.949 223.767 34.997C223.886 34.062 223.971 32.838 224.022 31.342C224.736 31.92 225.569 32.498 226.555 33.059L227.337 32.056C225.365 31.138 223.954 30.084 223.087 28.928H226.81V27.806H218.361C218.701 27.228 219.024 26.599 219.296 25.936H225.875V24.848H223.206C223.784 24.134 224.26 23.318 224.651 22.366L223.631 21.992C223.274 22.893 222.832 23.675 222.288 24.355L223.155 24.848H219.704C219.976 23.998 220.197 23.08 220.367 22.094L219.16 21.941C218.99 22.961 218.769 23.93 218.463 24.848H213.125V25.936H218.021C217.732 26.582 217.392 27.211 217.001 27.806H212.19V28.928H216.134C214.961 30.254 213.465 31.308 211.663 32.09L212.343 33.127C213.329 32.651 214.264 32.073 215.131 31.41V32.328H217.528ZM217.596 28.928H221.846C222.322 29.71 222.985 30.458 223.869 31.206H215.403C216.219 30.543 216.95 29.778 217.596 28.928ZM215.556 22.094L214.502 22.434C214.978 23.131 215.403 23.93 215.811 24.831L216.797 24.372C216.457 23.556 216.032 22.808 215.556 22.094Z" fill="black"/>
<path d="M127.116 48.688V52.48H128.844V57.58C128.532 57.652 128.196 57.736 127.86 57.808V53.68H127.092V57.976C126.876 58.024 126.648 58.06 126.432 58.108L126.672 58.948C128.412 58.576 129.936 58.18 131.232 57.76V56.908C130.728 57.064 130.2 57.22 129.648 57.376V55.168H130.98V54.352H129.648V52.48H130.836V48.688H127.116ZM129.996 51.676H127.956V49.492H129.996V51.676ZM136.716 55.588V51.508H132.636V49.468H137.136V48.64H131.808V58.744H137.316V57.916H132.636V55.588H136.716ZM132.636 52.3H135.9V54.784H132.636V52.3ZM144.78 57.196C143.964 57.376 143.136 57.544 142.284 57.688V55.564H144.444V54.724H142.284V53.332H141.42V54.724H139.08V55.564H141.42V57.832C140.508 57.976 139.572 58.096 138.612 58.204L138.804 59.032C140.94 58.768 142.932 58.432 144.78 58.048V57.196ZM138.768 48.724V49.54H140.736C140.052 50.92 139.464 51.82 138.972 52.252C138.888 52.288 138.768 52.312 138.624 52.336L138.828 53.116C140.628 52.936 142.296 52.708 143.808 52.444C144 52.768 144.168 53.08 144.324 53.392L145.044 52.888C144.612 52.084 144 51.136 143.196 50.056L142.536 50.488C142.86 50.932 143.16 51.364 143.424 51.796C142.344 51.988 141.216 52.132 140.028 52.252C140.532 51.64 141.072 50.74 141.648 49.54H144.732V48.724H138.768ZM147.9 59.092C148.62 59.092 148.992 58.72 148.992 57.988V48.232H148.116V57.772C148.116 58.12 147.936 58.3 147.6 58.3C147.072 58.3 146.52 58.276 145.944 58.252L146.136 59.092H147.9ZM145.716 49.312V56.74H146.556V49.312H145.716ZM151.5 48.232V49.576H150.756V50.38H151.5V55.456H150.624V56.272H156.3V55.456H155.52V50.38H156.24V49.576H155.52V48.256H154.68V49.576H152.34V48.232H151.5ZM152.34 55.456V54.28H154.68V55.456H152.34ZM154.68 50.38V51.58H152.34V50.38H154.68ZM152.34 53.524V52.336H154.68V53.524H152.34ZM154.464 56.584L153.792 57.004C154.332 57.724 154.764 58.396 155.076 59.008L155.712 58.552C155.7 58.576 155.688 58.6 155.664 58.624L156.324 59.236C157.116 58.18 157.596 56.872 157.764 55.288H160.092V57.748C160.092 58.108 159.936 58.288 159.624 58.288C159.24 58.288 158.832 58.264 158.388 58.24L158.628 59.092H159.9C160.596 59.092 160.956 58.744 160.956 58.06V48.652H156.972V54.268C156.948 55.948 156.552 57.352 155.76 58.468C155.46 57.94 155.028 57.304 154.464 56.584ZM152.124 56.572C151.68 57.388 151.152 58.084 150.552 58.672L151.236 59.164C151.836 58.528 152.364 57.772 152.82 56.908L152.124 56.572ZM157.824 52.36H160.092V54.496H157.812C157.812 54.4 157.824 54.304 157.824 54.196V52.36ZM160.092 51.568H157.824V49.468H160.092V51.568ZM165.084 48.124C164.532 49.984 163.644 51.64 162.42 53.08L162.696 53.968C163.152 53.476 163.572 52.96 163.956 52.42V59.224H164.832V51.016C165.252 50.224 165.6 49.396 165.888 48.508L165.084 48.124ZM172.956 59.2L173.544 58.504C172.248 57.652 171.156 56.716 170.292 55.684C171.42 54.052 172.188 52.06 172.596 49.72V48.952H166.392V49.78H167.016C167.208 51.94 167.94 53.896 169.224 55.648C168.312 56.8 167.172 57.748 165.792 58.492L166.38 59.212C167.712 58.456 168.852 57.508 169.788 56.356C170.628 57.364 171.684 58.312 172.956 59.2ZM169.728 54.964C168.624 53.428 168 51.7 167.832 49.78H171.72C171.36 51.784 170.7 53.512 169.728 54.964ZM176.316 51.7V52.396H174.804V53.092H176.316V53.896C175.836 54.16 175.308 54.4 174.72 54.616L174.936 55.36C175.428 55.12 175.884 54.856 176.316 54.58V55.132H177.072V51.7H176.316ZM180.096 53.26C180.672 53.14 181.2 52.972 181.656 52.756L181.404 52.06C181.008 52.288 180.576 52.468 180.096 52.6V51.7H179.352V54.484C179.352 54.7 179.424 54.88 179.568 55.024C179.7 55.168 179.904 55.24 180.18 55.24H180.756C181.068 55.228 181.296 55.156 181.428 55.036C181.572 54.904 181.668 54.484 181.728 53.776L181.116 53.584C181.092 54.124 181.02 54.424 180.912 54.496C180.84 54.544 180.732 54.568 180.612 54.568H180.408C180.192 54.568 180.096 54.484 180.096 54.316V53.26ZM180.792 48.208C179.292 48.64 177.408 48.856 175.14 48.856L175.368 49.564C176.244 49.564 177.072 49.528 177.84 49.468V50.392H174.912V51.16H177.84V54.628C177.048 55.828 175.968 56.848 174.576 57.7L175.08 58.456C176.136 57.736 177.06 56.848 177.84 55.792V59.224H178.656V56.044C179.256 56.5 179.988 57.16 180.852 58.012L181.356 57.244C180.444 56.476 179.544 55.792 178.656 55.204V51.16H181.356V50.392H178.656V49.396C179.604 49.276 180.444 49.108 181.188 48.892L180.792 48.208ZM182.304 49.6V56.92H183.084V49.6H182.304ZM183.984 59.128C184.704 59.128 185.064 58.78 185.064 58.096V48.34H184.224V57.892C184.224 58.204 184.044 58.372 183.696 58.372C183.36 58.372 183.012 58.348 182.652 58.312L182.832 59.128H183.984ZM188.76 49.432C188.472 49.756 188.136 50.044 187.728 50.308C187.32 50.548 186.912 50.716 186.528 50.824V51.808C187.332 51.568 188.004 51.184 188.544 50.632V58H189.528V49.432H188.76ZM194.5 49.264C193.684 49.264 193.024 49.492 192.52 49.96C191.992 50.428 191.68 51.076 191.608 51.904H192.58C192.64 51.328 192.832 50.884 193.168 50.572C193.492 50.26 193.936 50.116 194.512 50.116C195.064 50.116 195.508 50.248 195.82 50.536C196.108 50.8 196.264 51.172 196.264 51.652C196.264 52.132 196.108 52.504 195.808 52.768C195.508 53.02 195.076 53.152 194.5 53.152H193.84V53.92H194.536C195.136 53.92 195.592 54.052 195.928 54.34C196.264 54.628 196.432 55.024 196.432 55.54C196.432 56.044 196.252 56.464 195.916 56.8C195.544 57.148 195.052 57.328 194.44 57.328C193.9 57.328 193.456 57.172 193.096 56.884C192.676 56.536 192.448 56.02 192.424 55.348H191.428C191.5 56.308 191.836 57.04 192.448 57.544C192.964 57.952 193.624 58.168 194.44 58.168C195.328 58.168 196.048 57.916 196.6 57.412C197.14 56.92 197.416 56.284 197.416 55.504C197.416 55 197.272 54.58 196.984 54.244C196.72 53.908 196.336 53.668 195.832 53.512C196.768 53.2 197.236 52.552 197.236 51.592C197.236 50.872 196.984 50.308 196.492 49.888C195.988 49.468 195.316 49.264 194.5 49.264ZM199.596 52.156C199.38 52.156 199.212 52.228 199.08 52.372C198.936 52.516 198.864 52.684 198.864 52.888C198.864 53.092 198.936 53.272 199.08 53.416C199.212 53.548 199.38 53.62 199.596 53.62C199.788 53.62 199.968 53.548 200.112 53.416C200.256 53.272 200.328 53.092 200.328 52.888C200.328 52.684 200.256 52.516 200.112 52.372C199.968 52.228 199.788 52.156 199.596 52.156ZM199.596 56.548C199.38 56.548 199.212 56.62 199.08 56.764C198.936 56.908 198.864 57.076 198.864 57.28C198.864 57.484 198.936 57.664 199.08 57.808C199.212 57.94 199.38 58.012 199.596 58.012C199.788 58.012 199.968 57.94 200.112 57.808C200.256 57.664 200.328 57.484 200.328 57.28C200.328 57.076 200.256 56.908 200.112 56.764C199.968 56.62 199.788 56.548 199.596 56.548ZM205.784 49.432L201.464 55.12V56.056H205.772V58H206.708V56.056H208.1V55.252H206.708V49.432H205.784ZM205.736 50.716H205.772V55.252H202.292L205.736 50.716ZM211.971 49.264C210.939 49.264 210.171 49.708 209.655 50.62C209.199 51.388 208.971 52.42 208.971 53.716C208.971 55.012 209.199 56.044 209.655 56.812C210.171 57.712 210.939 58.168 211.971 58.168C212.991 58.168 213.759 57.712 214.287 56.812C214.743 56.044 214.971 55.012 214.971 53.716C214.971 52.42 214.743 51.388 214.287 50.62C213.759 49.708 212.991 49.264 211.971 49.264ZM211.971 50.104C212.739 50.104 213.291 50.512 213.627 51.34C213.867 51.916 213.999 52.708 213.999 53.716C213.999 54.712 213.867 55.504 213.627 56.092C213.291 56.908 212.739 57.328 211.971 57.328C211.203 57.328 210.651 56.908 210.315 56.092C210.075 55.504 209.955 54.712 209.955 53.716C209.955 52.708 210.075 51.916 210.315 51.34C210.651 50.512 211.203 50.104 211.971 50.104ZM217.15 52.156C216.934 52.156 216.766 52.228 216.634 52.372C216.49 52.516 216.418 52.684 216.418 52.888C216.418 53.092 216.49 53.272 216.634 53.416C216.766 53.548 216.934 53.62 217.15 53.62C217.342 53.62 217.522 53.548 217.666 53.416C217.81 53.272 217.882 53.092 217.882 52.888C217.882 52.684 217.81 52.516 217.666 52.372C217.522 52.228 217.342 52.156 217.15 52.156ZM217.15 56.548C216.934 56.548 216.766 56.62 216.634 56.764C216.49 56.908 216.418 57.076 216.418 57.28C216.418 57.484 216.49 57.664 216.634 57.808C216.766 57.94 216.934 58.012 217.15 58.012C217.342 58.012 217.522 57.94 217.666 57.808C217.81 57.664 217.882 57.484 217.882 57.28C217.882 57.076 217.81 56.908 217.666 56.764C217.522 56.62 217.342 56.548 217.15 56.548ZM221.49 49.432C221.202 49.756 220.866 50.044 220.458 50.308C220.05 50.548 219.642 50.716 219.258 50.824V51.808C220.062 51.568 220.734 51.184 221.274 50.632V58H222.258V49.432H221.49ZM228.155 49.432L223.835 55.12V56.056H228.143V58H229.079V56.056H230.471V55.252H229.079V49.432H228.155ZM228.107 50.716H228.143V55.252H224.663L228.107 50.716Z" fill="#FF5B05"/>
<rect x="126.5" y="78.5" width="59" height="23" rx="11.5" stroke="#0EBD8D"/>
<path d="M146.088 90.64L145.392 91.084C146.028 91.924 146.604 92.728 147.108 93.496C145.956 93.64 143.916 93.82 141.012 94.048C141.888 93.196 142.752 91.876 143.604 90.076H149.328V89.236H144.444V86.968H148.56V86.128H144.444V84.22H143.556V86.128H139.416V86.968H143.556V89.236H138.66V90.076H142.644C141.564 92.236 140.508 93.592 139.476 94.156L139.632 94.864C142.128 94.72 144.768 94.504 147.552 94.216C147.768 94.576 147.972 94.936 148.164 95.284L148.896 94.768C148.248 93.592 147.312 92.224 146.088 90.64ZM154.104 85.42V86.248H157.248V87.388H154.512V90.784H157.2C157.128 91.624 156.96 92.308 156.708 92.836C156.072 92.38 155.496 91.84 154.98 91.192L154.32 91.648C154.872 92.356 155.508 92.968 156.216 93.472C155.664 94 154.764 94.336 153.54 94.468L153.912 95.26C155.304 95.056 156.324 94.624 156.972 93.964C158.244 94.708 159.72 95.128 161.4 95.236L161.616 94.408C160.044 94.324 158.652 93.952 157.452 93.292C157.776 92.692 157.98 91.864 158.076 90.784H160.932V87.388H158.124V86.248H161.424V85.42H158.124V84.196H157.248V85.42H154.104ZM160.116 90.004H158.112C158.112 89.908 158.124 89.812 158.124 89.716V88.156H160.116V90.004ZM157.236 90.004H155.328V88.156H157.248V89.716C157.248 89.812 157.236 89.908 157.236 90.004ZM151.908 88.528V95.224H152.772V87.148C153.216 86.32 153.588 85.432 153.888 84.496L153.072 84.124C152.52 86.02 151.62 87.7 150.372 89.164L150.66 90.076C151.116 89.584 151.524 89.068 151.908 88.528ZM164.556 88.384H167.604V90.484H164.556V88.384ZM164.508 91.276H167.604V94.792H168.492V91.276H171.756V93.364C171.756 93.868 171.528 94.12 171.096 94.12C170.688 94.12 170.244 94.096 169.764 94.072L169.992 94.924H171.372C172.212 94.924 172.632 94.504 172.632 93.664V84.676H163.692V90.436C163.668 92.08 163.272 93.436 162.504 94.504L163.164 95.092C163.932 94.084 164.376 92.812 164.508 91.276ZM171.756 90.484H168.492V88.384H171.756V90.484ZM171.756 87.58H168.492V85.516H171.756V87.58ZM167.604 85.516V87.58H164.556V85.516H167.604Z" fill="#0EBD8D"/>
</svg>
