<svg width="181" height="30" viewBox="0 0 181 30" fill="none" xmlns="http://www.w3.org/2000/svg">
<g clip-path="url(#clip0_118_1695)">
<path d="M12.935 16.6094C9.30386 16.6094 5.67273 16.6094 2.04161 16.6094C0.104035 16.6094 -0.503765 15.6522 0.426404 13.9131C3.11281 8.91137 1.70245 9.74723 7.14242 9.70678C13.2674 9.6596 19.3924 9.68993 25.5174 9.70678C27.7001 9.70678 28.355 10.7415 27.4281 12.7132C25.6047 16.606 25.6047 16.606 21.3367 16.606H12.9417L12.935 16.6094Z" fill="white"/>
<path d="M20.4839 7.07786C17.1998 7.07786 13.919 7.07786 10.6349 7.07786C9.34542 7.07786 9.02641 6.58578 9.62749 5.46343C10.3864 4.04449 11.2024 2.63903 12.0083 1.23694C12.5087 0.364004 13.2306 0 14.275 0C20.6552 0.0370745 27.0556 0.0202224 33.4458 0C35.1248 0 35.605 0.721267 34.8629 2.21099C34.8428 2.25143 34.8159 2.28514 34.7958 2.32558C32.3478 7.07786 32.3478 7.07786 27.0556 7.07786H20.4839Z" fill="white"/>
<path d="M17.1259 26.2658H7.28019C5.39635 26.2658 4.92958 25.4738 5.81946 23.7919C6.41382 22.673 7.05185 21.5708 7.6395 20.4519C7.80851 20.0956 8.08146 19.7995 8.42213 19.6026C8.7628 19.4058 9.15507 19.3176 9.54685 19.3497C15.4536 19.3497 21.3603 19.3497 27.2704 19.3497C29.9031 19.3497 31.0515 21.3147 30.0273 23.7313C29.2147 25.6153 28.0831 26.4579 25.9171 26.2894C23.0024 26.0737 20.0574 26.2355 17.1259 26.2355V26.2658Z" fill="white"/>
<path d="M59.4704 10.5225C59.5269 10.5191 59.5834 10.5277 59.6363 10.5478C59.6892 10.5679 59.7372 10.5991 59.7772 10.6392C59.8172 10.6794 59.8483 10.7276 59.8683 10.7807C59.8884 10.8337 59.8969 10.8905 59.8935 10.9472V14.4591C59.8969 14.5158 59.8884 14.5725 59.8683 14.6256C59.8483 14.6787 59.8172 14.7269 59.7772 14.7671C59.7372 14.8072 59.6892 14.8384 59.6363 14.8585C59.5834 14.8786 59.5269 14.8872 59.4704 14.8838H51.3239V19.8316H60.3905C60.447 19.8281 60.5035 19.8367 60.5564 19.8569C60.6093 19.877 60.6573 19.9082 60.6973 19.9483C60.7373 19.9884 60.7683 20.0366 60.7884 20.0897C60.8084 20.1428 60.817 20.1996 60.8136 20.2562V23.7682C60.817 23.8249 60.8084 23.8816 60.7884 23.9347C60.7683 23.9878 60.7373 24.036 60.6973 24.0761C60.6573 24.1163 60.6093 24.1474 60.5564 24.1676C60.5035 24.1877 60.447 24.1963 60.3905 24.1929H46.7368C46.6804 24.1963 46.6238 24.1877 46.5709 24.1676C46.5181 24.1474 46.47 24.1163 46.43 24.0761C46.39 24.036 46.359 23.9878 46.3389 23.9347C46.3189 23.8816 46.3103 23.8249 46.3137 23.7682V2.03918C46.3103 1.98251 46.3189 1.92576 46.3389 1.87268C46.359 1.81959 46.39 1.77139 46.43 1.73124C46.47 1.6911 46.5181 1.65994 46.5709 1.63981C46.6238 1.61969 46.6804 1.61106 46.7368 1.61451H60.3771C60.4335 1.61106 60.4901 1.61969 60.543 1.63981C60.5958 1.65994 60.6439 1.6911 60.6839 1.73124C60.7239 1.77139 60.7549 1.81959 60.775 1.87268C60.795 1.92576 60.8036 1.98251 60.8002 2.03918V5.55451C60.8036 5.61118 60.795 5.66793 60.775 5.72102C60.7549 5.7741 60.7239 5.82231 60.6839 5.86245C60.6439 5.90259 60.5958 5.93376 60.543 5.95388C60.4901 5.974 60.4335 5.98263 60.3771 5.97919H51.3104V10.5225H59.4704Z" fill="white"/>
<path d="M72.533 7.64741C75.5351 7.64741 77.5432 9.53147 77.5432 12.8682V23.7681C77.5466 23.8247 77.538 23.8815 77.518 23.9346C77.4979 23.9877 77.4669 24.0359 77.4269 24.076C77.3869 24.1162 77.3388 24.1473 77.286 24.1674C77.2331 24.1876 77.1765 24.1962 77.1201 24.1927H73.2046C73.1482 24.1962 73.0916 24.1876 73.0387 24.1674C72.9858 24.1473 72.9378 24.1162 72.8978 24.076C72.8578 24.0359 72.8268 23.9877 72.8067 23.9346C72.7867 23.8815 72.7781 23.8247 72.7815 23.7681V13.9164C72.7815 12.2615 72.1502 11.4829 70.619 11.4829H70.4746C69.5014 11.5465 68.5647 11.879 67.768 12.4435V23.7681C67.7714 23.8247 67.7629 23.8815 67.7428 23.9346C67.7228 23.9877 67.6917 24.0359 67.6517 24.076C67.6117 24.1162 67.5637 24.1473 67.5108 24.1674C67.4579 24.1876 67.4014 24.1962 67.3449 24.1927H63.416C63.3596 24.1962 63.303 24.1876 63.2501 24.1674C63.1973 24.1473 63.1492 24.1162 63.1092 24.076C63.0692 24.0359 63.0382 23.9877 63.0181 23.9346C62.9981 23.8815 62.9895 23.8247 62.9929 23.7681V8.49339C62.9895 8.43672 62.9981 8.37997 63.0181 8.32688C63.0382 8.2738 63.0692 8.22559 63.1092 8.18545C63.1492 8.14531 63.1973 8.11414 63.2501 8.09402C63.303 8.07389 63.3596 8.06527 63.416 8.06871H66.8681C66.9612 8.06625 67.0522 8.0971 67.1248 8.15575C67.1974 8.2144 67.2468 8.29704 67.2643 8.3889L67.5229 9.73707C69.2019 8.27431 70.6593 7.64404 72.1737 7.64404L72.533 7.64741Z" fill="white"/>
<path d="M87.6439 7.64746C89.1546 7.70578 90.6387 8.06555 92.0093 8.70577C92.1228 8.75142 92.2177 8.83412 92.2786 8.94052C92.3395 9.04692 92.363 9.17081 92.3451 9.29222V12.2447C92.3502 12.2974 92.3415 12.3506 92.3198 12.3989C92.298 12.4472 92.2641 12.4889 92.2213 12.5199C92.1785 12.5509 92.1283 12.5702 92.0758 12.5757C92.0233 12.5812 91.9703 12.5728 91.922 12.5514C90.3874 11.8773 89.3733 11.4796 88.3491 11.4796H88.1644C86.1899 11.4796 84.6822 12.7604 84.6822 15.3758V16.8756C84.6822 19.4911 86.1899 20.7718 88.1644 20.7718H88.3491C89.3733 20.7718 90.3874 20.3741 91.922 19.7C91.9703 19.6786 92.0233 19.6702 92.0758 19.6757C92.1283 19.6813 92.1785 19.7005 92.2213 19.7315C92.2641 19.7625 92.298 19.8043 92.3198 19.8526C92.3415 19.9008 92.3502 19.954 92.3451 20.0067V22.9592C92.363 23.0806 92.3395 23.2045 92.2786 23.3109C92.2177 23.4173 92.1228 23.5 92.0093 23.5457C90.6387 24.1859 89.1546 24.5457 87.6439 24.604H87.2913C83.3222 24.604 79.803 22.1132 79.803 16.97V15.2848C79.803 10.1416 83.3188 7.65083 87.2913 7.65083L87.6439 7.64746Z" fill="white"/>
<path d="M101.701 7.64735C105.082 7.64735 107.923 8.93147 107.98 13.7849V23.768C107.984 23.8247 107.975 23.8814 107.955 23.9345C107.935 23.9876 107.904 24.0358 107.864 24.0759C107.824 24.1161 107.776 24.1473 107.723 24.1674C107.67 24.1875 107.613 24.1961 107.557 24.1927H104.098C104.005 24.1951 103.914 24.1643 103.842 24.1056C103.769 24.047 103.72 23.9644 103.702 23.8725L103.443 22.4738C102.49 23.4141 100.811 24.6106 98.8396 24.6106H98.6717C95.6227 24.6106 94.1116 22.4198 94.1116 20.0235V19.6864C94.1116 16.5081 96.17 14.8061 100.922 14.4623L103.195 14.3039V13.9669C103.195 11.9783 102.389 11.4087 100.579 11.4087H100.502C99.1083 11.4087 97.5267 11.9109 95.7805 12.3996C95.7322 12.419 95.6797 12.4259 95.628 12.4195C95.5763 12.4131 95.5271 12.3937 95.4849 12.3631C95.4427 12.3325 95.4088 12.2917 95.3866 12.2444C95.3643 12.1972 95.3542 12.1451 95.3574 12.0929V9.21459C95.3574 8.8944 95.4749 8.69217 95.6932 8.62814C97.5821 8.01908 99.5492 7.6887 101.533 7.64735H101.701ZM101.576 17.1216C99.7228 17.1519 98.9169 17.8833 98.9169 19.0798V19.1876C98.9169 20.2426 99.6523 20.9605 100.76 20.9605H100.915C101.694 20.9605 102.382 20.6234 103.205 19.9021V17.0946L101.576 17.1216ZM102.664 0.761603C102.716 0.649238 102.799 0.555012 102.905 0.491264C103.01 0.427516 103.133 0.397219 103.255 0.40434H106.684C106.721 0.402722 106.758 0.411751 106.791 0.430382C106.823 0.449013 106.85 0.476486 106.867 0.509625C106.885 0.542763 106.893 0.580214 106.89 0.617647C106.887 0.65508 106.874 0.690967 106.852 0.721159L103.615 5.67903C103.567 5.77707 103.49 5.85838 103.396 5.91246C103.301 5.96653 103.193 5.99089 103.084 5.98237H100.398C100.364 5.98582 100.329 5.97911 100.299 5.96307C100.269 5.94703 100.244 5.92237 100.227 5.89217C100.211 5.86197 100.203 5.82757 100.206 5.79326C100.209 5.75895 100.222 5.72625 100.243 5.69925L102.664 0.761603Z" fill="white"/>
<path d="M119.545 7.64747C119.789 7.64698 120.033 7.66841 120.274 7.71151C120.363 7.72995 120.442 7.77992 120.498 7.8523C120.553 7.92469 120.581 8.01467 120.576 8.10584V11.7358C120.579 11.8026 120.567 11.8692 120.54 11.9305C120.514 11.9918 120.473 12.0461 120.422 12.0891C120.371 12.1322 120.311 12.1628 120.246 12.1787C120.181 12.1946 120.114 12.1953 120.049 12.1807C119.804 12.147 119.203 12.1166 118.826 12.1166H118.605C117.383 12.1341 116.193 12.509 115.18 13.1952V23.7681C115.183 23.8248 115.175 23.8815 115.154 23.9346C115.134 23.9877 115.103 24.0359 115.063 24.0761C115.023 24.1162 114.975 24.1474 114.922 24.1675C114.87 24.1876 114.813 24.1962 114.757 24.1928H110.845C110.788 24.1962 110.731 24.1876 110.679 24.1675C110.626 24.1474 110.578 24.1162 110.538 24.0761C110.498 24.0359 110.467 23.9877 110.447 23.9346C110.427 23.8815 110.418 23.8248 110.421 23.7681V8.49344C110.418 8.43678 110.427 8.38002 110.447 8.32694C110.467 8.27385 110.498 8.22565 110.538 8.1855C110.578 8.14536 110.626 8.1142 110.679 8.09407C110.731 8.07395 110.788 8.06533 110.845 8.06877H114.297C114.39 8.06631 114.481 8.09716 114.553 8.15581C114.626 8.21446 114.675 8.29709 114.693 8.38896L115.029 10.1652C116.207 8.55074 117.88 7.65084 119.394 7.65084L119.545 7.64747Z" fill="white"/>
<path d="M136.379 9.55511C136.468 9.61463 136.541 9.69461 136.593 9.7884C136.645 9.8822 136.674 9.9871 136.678 10.0944V23.0704C136.671 28.062 132.705 29.9966 129.283 29.9966H129.142C127.225 30.0135 125.319 29.6999 123.508 29.0698C123.273 29.0057 123.172 28.8035 123.172 28.4833V25.5342C123.167 25.4815 123.175 25.4283 123.197 25.38C123.219 25.3317 123.253 25.29 123.296 25.259C123.338 25.228 123.389 25.2087 123.441 25.2032C123.494 25.1977 123.547 25.2061 123.595 25.2275C125.052 25.7971 126.479 26.3229 128.031 26.3229H128.185C130.677 26.3229 131.903 25.4095 131.903 23.0502V22.0897C130.812 23.099 129.393 23.6774 127.91 23.7176H127.604C123.736 23.7176 121.896 20.6202 121.896 16.7712V14.9377C121.896 10.2427 124.653 7.64746 128.887 7.64746H129.223C132.057 7.64746 135.026 8.69903 136.389 9.55511H136.379ZM129.246 19.8854C130.218 19.8453 131.151 19.4906 131.906 18.8743V12.2043C131.104 11.7413 130.207 11.4681 129.283 11.4055H129.129C127.601 11.4055 126.778 12.4503 126.778 14.5905V16.6734C126.778 18.8136 127.547 19.8854 129.102 19.8854H129.246Z" fill="white"/>
<path d="M146.272 7.64746C149.653 7.64746 152.494 8.93159 152.551 13.785V23.7681C152.555 23.826 152.547 23.884 152.526 23.9383C152.506 23.9925 152.474 24.0417 152.433 24.0824C152.392 24.1231 152.342 24.1543 152.288 24.174C152.233 24.1936 152.175 24.2012 152.118 24.1962H148.673C148.579 24.1986 148.488 24.1678 148.416 24.1091C148.343 24.0505 148.294 23.9678 148.276 23.876L148.018 22.4773C147.064 23.4142 145.385 24.6141 143.414 24.6141H143.246C140.197 24.604 138.686 22.4233 138.686 20.027V19.6899C138.686 16.5116 140.744 14.8096 145.496 14.4658L147.769 14.3074V13.9703C147.769 11.9818 146.963 11.4122 145.153 11.4122H145.076C143.683 11.4122 142.101 11.9144 140.355 12.4031C140.306 12.4225 140.254 12.4293 140.202 12.423C140.151 12.4166 140.101 12.3972 140.059 12.3666C140.017 12.336 139.983 12.2952 139.961 12.2479C139.938 12.2007 139.928 12.1486 139.932 12.0964V9.2147C139.932 8.89451 140.049 8.69229 140.267 8.62825C142.156 8.0192 144.123 7.68882 146.107 7.64746H146.272ZM146.147 17.1217C144.294 17.152 143.488 17.8834 143.488 19.0799V19.1877C143.488 20.2427 144.223 20.9606 145.331 20.9606H145.486C146.265 20.9606 146.953 20.6235 147.776 19.9023V17.0947L146.147 17.1217Z" fill="white"/>
<path d="M160.513 3.70747C160.581 3.6834 160.655 3.67703 160.727 3.68895C160.798 3.70087 160.866 3.73068 160.923 3.77566C160.98 3.82064 161.025 3.87934 161.054 3.94634C161.083 4.01335 161.094 4.08652 161.087 4.15911V8.06541H164.653C164.71 8.06197 164.766 8.07059 164.819 8.09072C164.872 8.11084 164.92 8.142 164.96 8.18215C165 8.22229 165.031 8.2705 165.051 8.32358C165.071 8.37667 165.08 8.43342 165.076 8.49008V11.3414C165.08 11.3981 165.071 11.4549 165.051 11.508C165.031 11.561 165 11.6092 164.96 11.6494C164.92 11.6895 164.872 11.7207 164.819 11.7408C164.766 11.7609 164.71 11.7696 164.653 11.7661H161.077V19.1271C161.077 20.2899 161.567 20.7786 162.42 20.7786H162.575C162.937 20.7786 163.465 20.6303 164.626 20.2831C164.677 20.2673 164.73 20.2635 164.782 20.2721C164.834 20.2807 164.883 20.3014 164.925 20.3325C164.968 20.3637 165.002 20.4044 165.026 20.4515C165.05 20.4985 165.063 20.5505 165.063 20.6033V23.2997C165.064 23.3994 165.037 23.4974 164.984 23.5817C164.931 23.6661 164.854 23.7332 164.764 23.7749C163.738 24.2719 162.622 24.554 161.483 24.604H161.148C158.058 24.604 156.292 22.8548 156.292 20.0101V11.7695H154.586C154.53 11.7729 154.473 11.7643 154.42 11.7442C154.367 11.7241 154.319 11.6929 154.279 11.6528C154.239 11.6126 154.208 11.5644 154.188 11.5113C154.168 11.4582 154.159 11.4015 154.163 11.3448V8.92824C154.163 8.68557 154.344 8.5912 154.586 8.50356L156.292 8.06541V5.22079C156.279 5.06938 156.323 4.91868 156.415 4.79788C156.507 4.67709 156.64 4.59479 156.789 4.56693L160.513 3.70747Z" fill="white"/>
<path d="M174.281 7.64746C178.065 7.64746 181.013 10.0067 181.013 14.6984V16.4139C181.013 16.5927 180.943 16.7641 180.817 16.8905C180.691 17.017 180.52 17.088 180.342 17.088H171.47V17.6036C171.47 19.818 172.957 20.8392 174.942 20.8392H175.097C176.49 20.8392 178.048 20.337 179.798 19.6899C179.846 19.6685 179.899 19.6601 179.952 19.6656C180.004 19.6712 180.054 19.6904 180.097 19.7214C180.14 19.7524 180.174 19.7942 180.195 19.8425C180.217 19.8907 180.226 19.9439 180.221 19.9966V22.9491C180.239 23.0705 180.215 23.1944 180.154 23.3008C180.093 23.4072 179.999 23.4899 179.885 23.5356C178.878 24.0074 176.305 24.5939 174.412 24.5939H174.076C169.895 24.604 166.557 22.1368 166.557 17.0913V15.3455C166.557 10.4483 169.915 7.64746 173.911 7.64746H174.281ZM173.985 11.1392C172.481 11.1392 171.561 12.2818 171.47 14.3512H176.564C176.628 12.2009 175.855 11.1392 174.116 11.1392H173.985Z" fill="white"/>
</g>
<defs>
<clipPath id="clip0_118_1695">
<rect width="181" height="30" fill="white"/>
</clipPath>
</defs>
</svg>
