<svg width="577" height="138" viewBox="0 0 577 138" fill="none" xmlns="http://www.w3.org/2000/svg">
<g clip-path="url(#clip0_118_1813)">
<g clip-path="url(#clip1_118_1813)">
<path d="M71.9999 -3.38866e-05C85.3199 -3.38866e-05 98.6499 0.119966 112 -3.38866e-05C116.047 -0.0754984 120.068 0.649957 123.833 2.13459C127.599 3.61923 131.033 5.83374 133.939 8.65071C136.846 11.4677 139.166 14.8315 140.767 18.5487C142.369 22.2658 143.219 26.2629 143.27 30.31C143.697 55.71 143.697 81.1166 143.27 106.53C142.99 124.4 128.63 137.75 110.73 137.75H32.8399C14.3599 137.75 0.499883 124.75 0.259883 106.37C-0.0801172 80.9633 -0.0801172 55.5533 0.259883 30.14C0.459883 16.69 8.63988 5.18997 21.2599 1.42997C24.3544 0.481131 27.5732 -0.00083774 30.8099 -3.38866e-05C37.6799 0.0499661 44.5399 -3.38866e-05 51.4099 -3.38866e-05H71.9999Z" fill="#FE5C19"/>
<path d="M215.55 62.9998C215.718 62.9896 215.886 63.0152 216.044 63.0749C216.201 63.1346 216.344 63.2271 216.464 63.3462C216.583 63.4653 216.675 63.6083 216.735 63.7658C216.794 63.9233 216.82 64.0917 216.81 64.2598V74.6698C216.82 74.8379 216.794 75.0063 216.735 75.1638C216.675 75.3213 216.583 75.4644 216.464 75.5835C216.344 75.7026 216.201 75.795 216.044 75.8547C215.886 75.9144 215.718 75.94 215.55 75.9298H191.28V90.6098H218.28C218.448 90.5996 218.616 90.6252 218.774 90.6849C218.931 90.7446 219.074 90.8371 219.194 90.9562C219.313 91.0753 219.405 91.2183 219.465 91.3758C219.524 91.5333 219.55 91.7017 219.54 91.8698V102.29C219.55 102.458 219.524 102.626 219.465 102.784C219.405 102.941 219.313 103.084 219.194 103.203C219.074 103.323 218.931 103.415 218.774 103.475C218.616 103.534 218.448 103.56 218.28 103.55H177.62C177.452 103.56 177.283 103.534 177.126 103.475C176.968 103.415 176.825 103.323 176.706 103.203C176.587 103.084 176.495 102.941 176.435 102.784C176.375 102.626 176.35 102.458 176.36 102.29V37.8198C176.35 37.6517 176.375 37.4833 176.435 37.3258C176.495 37.1683 176.587 37.0253 176.706 36.9062C176.825 36.7871 176.968 36.6946 177.126 36.6349C177.283 36.5752 177.452 36.5496 177.62 36.5598H218.24C218.408 36.5496 218.576 36.5752 218.734 36.6349C218.891 36.6946 219.034 36.7871 219.154 36.9062C219.273 37.0253 219.365 37.1683 219.425 37.3258C219.484 37.4833 219.51 37.6517 219.5 37.8198V48.2498C219.51 48.4179 219.484 48.5863 219.425 48.7438C219.365 48.9013 219.273 49.0444 219.154 49.1635C219.034 49.2826 218.891 49.375 218.734 49.4347C218.576 49.4944 218.408 49.52 218.24 49.5098H191.24V62.9998H215.55Z" fill="white"/>
<path d="M254.46 54.46C263.4 54.46 269.38 60.05 269.38 69.95V102.3C269.39 102.468 269.364 102.636 269.305 102.794C269.245 102.951 269.153 103.095 269.033 103.214C268.914 103.333 268.771 103.425 268.614 103.485C268.456 103.545 268.288 103.57 268.12 103.56H256.43C256.262 103.57 256.093 103.545 255.936 103.485C255.778 103.425 255.635 103.333 255.516 103.214C255.397 103.095 255.305 102.951 255.245 102.794C255.185 102.636 255.16 102.468 255.17 102.3V73.06C255.17 68.15 253.29 65.84 248.73 65.84H248.3C245.402 66.0287 242.612 67.015 240.24 68.69V102.29C240.25 102.458 240.224 102.626 240.165 102.784C240.105 102.941 240.013 103.085 239.893 103.204C239.774 103.323 239.631 103.415 239.474 103.475C239.316 103.535 239.148 103.56 238.98 103.55H227.29C227.122 103.56 226.953 103.535 226.796 103.475C226.638 103.415 226.495 103.323 226.376 103.204C226.257 103.085 226.165 102.941 226.105 102.784C226.045 102.626 226.02 102.458 226.03 102.29V57C226.02 56.8318 226.045 56.6635 226.105 56.506C226.165 56.3484 226.257 56.2054 226.376 56.0863C226.495 55.9672 226.638 55.8747 226.796 55.815C226.953 55.7553 227.122 55.7297 227.29 55.74H237.57C237.847 55.7327 238.118 55.8242 238.334 55.9982C238.55 56.1722 238.698 56.4174 238.75 56.69L239.52 60.69C244.52 56.35 248.86 54.48 253.37 54.48L254.46 54.46Z" fill="white"/>
<path d="M299.43 54.46C303.929 54.633 308.348 55.7004 312.43 57.6C312.768 57.7354 313.05 57.9808 313.232 58.2965C313.413 58.6121 313.483 58.9797 313.43 59.34V68.1C313.445 68.2564 313.419 68.4142 313.354 68.5574C313.29 68.7007 313.188 68.8245 313.061 68.9166C312.934 69.0086 312.784 69.0657 312.628 69.082C312.472 69.0984 312.314 69.0736 312.17 69.01C307.6 67.01 304.58 65.83 301.53 65.83H301C295.12 65.83 290.63 69.63 290.63 77.39V81.84C290.63 89.6 295.12 93.4 301 93.4H301.55C304.6 93.4 307.62 92.22 312.19 90.22C312.334 90.1563 312.492 90.1315 312.648 90.1479C312.804 90.1643 312.954 90.2213 313.081 90.3134C313.208 90.4054 313.31 90.5292 313.374 90.6725C313.439 90.8158 313.465 90.9735 313.45 91.13V99.89C313.503 100.25 313.433 100.618 313.252 100.933C313.07 101.249 312.788 101.495 312.45 101.63C308.368 103.529 303.949 104.597 299.45 104.77H298.4C286.58 104.77 276.1 97.38 276.1 82.12V77.12C276.1 61.86 286.57 54.47 298.4 54.47L299.43 54.46Z" fill="white"/>
<path d="M341.3 54.46C351.37 54.46 359.83 58.27 360 72.67V102.29C360.01 102.458 359.985 102.626 359.925 102.784C359.865 102.941 359.773 103.085 359.654 103.204C359.535 103.323 359.391 103.415 359.234 103.475C359.076 103.535 358.908 103.56 358.74 103.55H348.45C348.173 103.557 347.902 103.466 347.685 103.292C347.469 103.118 347.322 102.873 347.27 102.6L346.5 98.45C343.66 101.24 338.66 104.79 332.79 104.79H332.29C323.21 104.79 318.71 98.29 318.71 91.18V90.18C318.71 80.75 324.84 75.7 338.99 74.68L345.76 74.21V73.21C345.76 67.31 343.36 65.62 337.97 65.62H337.74C333.59 65.62 328.88 67.11 323.68 68.56C323.536 68.6176 323.38 68.6378 323.226 68.6189C323.072 68.5999 322.925 68.5424 322.8 68.4516C322.674 68.3608 322.573 68.2397 322.507 68.0996C322.44 67.9594 322.411 67.8048 322.42 67.65V59.11C322.42 58.16 322.77 57.56 323.42 57.37C329.045 55.5629 334.903 54.5827 340.81 54.46H341.3ZM340.93 82.57C335.41 82.66 333.01 84.83 333.01 88.38V88.7C333.01 91.83 335.2 93.96 338.5 93.96H339C341.32 93.96 343.37 92.96 345.82 90.82V82.49L340.93 82.57ZM344.16 34C344.321 33.6778 344.575 33.4107 344.888 33.2327C345.201 33.0547 345.561 32.9737 345.92 33H356.13C356.241 32.9952 356.352 33.022 356.448 33.0772C356.545 33.1325 356.624 33.214 356.676 33.3123C356.729 33.4107 356.752 33.5218 356.744 33.6328C356.736 33.7439 356.696 33.8504 356.63 33.94L347 48.62C346.857 48.9108 346.63 49.1521 346.348 49.3125C346.066 49.473 345.743 49.5452 345.42 49.52H337.42C337.318 49.5302 337.216 49.5103 337.126 49.4627C337.035 49.4151 336.961 49.342 336.912 49.2524C336.863 49.1628 336.841 49.0607 336.85 48.9589C336.858 48.8571 336.897 48.7601 336.96 48.68L344.16 34Z" fill="white"/>
<path d="M394.42 54.46C395.147 54.4585 395.874 54.5221 396.59 54.65C396.855 54.7047 397.092 54.853 397.257 55.0677C397.422 55.2825 397.505 55.5495 397.49 55.82V66.59C397.499 66.7882 397.463 66.986 397.383 67.1678C397.304 67.3497 397.183 67.5107 397.031 67.6385C396.879 67.7662 396.7 67.8571 396.507 67.9042C396.315 67.9513 396.113 67.9533 395.92 67.91C395.19 67.81 393.4 67.72 392.28 67.72H391.62C388 67.7865 384.478 68.9016 381.48 70.93V102.3C381.49 102.468 381.464 102.636 381.405 102.794C381.345 102.951 381.253 103.095 381.133 103.214C381.014 103.333 380.871 103.425 380.714 103.485C380.556 103.545 380.388 103.57 380.22 103.56H368.53C368.362 103.57 368.193 103.545 368.036 103.485C367.878 103.425 367.735 103.333 367.616 103.214C367.497 103.095 367.405 102.951 367.345 102.794C367.285 102.636 367.26 102.468 367.27 102.3V57C367.26 56.8319 367.285 56.6635 367.345 56.506C367.405 56.3485 367.497 56.2054 367.616 56.0863C367.735 55.9672 367.878 55.8748 368.036 55.8151C368.193 55.7554 368.362 55.7298 368.53 55.74H378.81C379.087 55.7327 379.358 55.8242 379.574 55.9982C379.79 56.1722 379.938 56.4174 379.99 56.69L380.99 61.96C384.5 57.17 389.48 54.5 393.99 54.5L394.42 54.46Z" fill="white"/>
<path d="M444.57 60.11C444.835 60.2865 445.054 60.5238 445.209 60.8021C445.364 61.0804 445.45 61.3917 445.46 61.71V100.22C445.46 115.03 433.64 120.78 423.46 120.78H423.04C417.339 120.817 411.674 119.877 406.29 118C405.59 117.81 405.29 117.21 405.29 116.26V107.5C405.275 107.343 405.301 107.186 405.366 107.042C405.43 106.899 405.531 106.775 405.659 106.683C405.786 106.591 405.936 106.534 406.092 106.518C406.248 106.501 406.406 106.526 406.55 106.59C410.89 108.28 415.14 109.84 419.76 109.84H420.22C427.64 109.84 431.29 107.13 431.29 100.13V97.3C428.041 100.295 423.817 102.011 419.4 102.13H418.47C406.95 102.13 401.47 92.94 401.47 81.52V76.09C401.47 62.16 409.68 54.46 422.29 54.46H423.29C431.73 54.46 440.57 57.58 444.63 60.12L444.57 60.11ZM423.33 90.75C426.225 90.631 429.003 89.5786 431.25 87.75V68C428.867 66.6292 426.203 65.8187 423.46 65.63H423C418.45 65.63 416 68.73 416 75.08V81.26C416 87.61 418.29 90.79 422.92 90.79L423.33 90.75Z" fill="white"/>
<path d="M474 54.4602C484.07 54.4602 492.53 58.2702 492.7 72.6702V102.3C492.71 102.468 492.685 102.637 492.625 102.794C492.565 102.952 492.473 103.095 492.354 103.214C492.234 103.333 492.091 103.425 491.934 103.485C491.776 103.545 491.608 103.57 491.44 103.56H481.18C480.903 103.567 480.632 103.476 480.415 103.302C480.199 103.128 480.052 102.883 480 102.61L479.23 98.4602C476.39 101.24 471.39 104.8 465.52 104.8H465C455.92 104.8 451.42 98.3002 451.42 91.1902V90.1902C451.42 80.7602 457.55 75.7102 471.7 74.6902L478.47 74.2202V73.2202C478.47 67.3202 476.07 65.6302 470.68 65.6302H470.45C466.3 65.6302 461.59 67.1202 456.39 68.5702C456.246 68.6278 456.09 68.6481 455.936 68.6291C455.782 68.6102 455.635 68.5526 455.51 68.4618C455.384 68.371 455.283 68.2499 455.217 68.1098C455.15 67.9696 455.121 67.815 455.13 67.6602V59.1002C455.13 58.1502 455.48 57.5502 456.13 57.3602C461.755 55.5531 467.613 54.5729 473.52 54.4502L474 54.4602ZM473.63 82.5702C468.11 82.6602 465.71 84.8302 465.71 88.3802V88.7002C465.71 91.8302 467.9 93.9602 471.2 93.9602H471.66C473.98 93.9602 476.03 92.9602 478.48 90.8202V82.4902L473.63 82.5702Z" fill="white"/>
<path d="M516.42 42.75C516.624 42.6786 516.843 42.6597 517.056 42.6951C517.27 42.7304 517.471 42.8189 517.641 42.9524C517.812 43.0858 517.946 43.26 518.031 43.4588C518.116 43.6576 518.15 43.8747 518.13 44.09V55.7H528.75C528.921 55.6907 529.092 55.7183 529.251 55.781C529.41 55.8437 529.554 55.94 529.673 56.0634C529.791 56.1869 529.882 56.3344 529.939 56.4961C529.995 56.6577 530.016 56.8296 530 57V65.46C530.01 65.6282 529.984 65.7965 529.925 65.954C529.865 66.1115 529.773 66.2546 529.653 66.3737C529.534 66.4928 529.391 66.5853 529.234 66.645C529.076 66.7047 528.908 66.7303 528.74 66.72H518.13V88.52C518.13 91.97 519.59 93.42 522.13 93.42H522.59C523.67 93.42 525.24 92.98 528.7 91.95C528.849 91.903 529.008 91.8918 529.162 91.9173C529.317 91.9427 529.463 92.0041 529.59 92.0966C529.716 92.189 529.819 92.3099 529.891 92.4495C529.962 92.589 529.999 92.7434 530 92.9V100.9C530.004 101.196 529.922 101.487 529.764 101.737C529.606 101.987 529.379 102.186 529.11 102.31C526.05 103.798 522.719 104.645 519.32 104.8H518.32C509.12 104.8 503.86 99.61 503.86 91.17V66.69H498.78C498.612 66.7003 498.443 66.6747 498.286 66.615C498.128 66.5553 497.985 66.4628 497.866 66.3437C497.747 66.2246 497.655 66.0816 497.595 65.924C497.535 65.7665 497.51 65.5982 497.52 65.43V58.26C497.52 57.54 498.06 57.26 498.78 57L503.86 55.7V47.25C503.822 46.8008 503.953 46.3537 504.227 45.9953C504.5 45.6369 504.897 45.3927 505.34 45.31L516.42 42.75Z" fill="white"/>
<path d="M557.4 54.46C568.67 54.46 577.45 61.46 577.45 75.38V80.47C577.45 81.0004 577.239 81.5091 576.864 81.8842C576.489 82.2593 575.98 82.47 575.45 82.47H549.07V84C549.07 90.57 553.5 93.6 559.41 93.6H559.87C564.02 93.6 568.66 92.11 573.87 90.19C574.014 90.1263 574.172 90.1015 574.328 90.1179C574.484 90.1343 574.634 90.1913 574.761 90.2834C574.889 90.3754 574.99 90.4992 575.054 90.6425C575.119 90.7858 575.145 90.9435 575.13 91.1V99.86C575.183 100.22 575.113 100.588 574.932 100.903C574.75 101.219 574.468 101.465 574.13 101.6C571.13 103 563.47 104.74 557.83 104.74H556.83C544.37 104.74 534.45 97.39 534.45 82.42V77.3C534.45 62.75 544.45 54.46 556.33 54.46H557.4ZM556.52 64.82C552.04 64.82 549.3 68.21 549.03 74.35H564.2C564.39 67.97 562.09 64.82 556.91 64.82H556.52Z" fill="white"/>
<path d="M58.1098 109.84H54.7798" stroke="black" stroke-width="0.28" stroke-miterlimit="10"/>
<path d="M54.7799 109.84H47.0999" stroke="black" stroke-width="0.28" stroke-miterlimit="10"/>
<path d="M47.0998 109.84H43.7798" stroke="black" stroke-width="0.28" stroke-miterlimit="10"/>
<path d="M43.8098 109.77L43.7798 109.84" stroke="black" stroke-width="0.28" stroke-miterlimit="10" stroke-dasharray="0.08 0.08"/>
<path d="M87.4099 81L87.3599 81.09" stroke="black" stroke-width="0.28" stroke-miterlimit="10" stroke-dasharray="0.1 0.1"/>
<path d="M24.56 81.0801C19.46 81.0801 17.45 78.8601 18.97 74.8001L25.08 63.0001C26.5 60.8801 27.81 60.5301 31.28 60.5301H94.51C95.6246 60.5118 96.7369 60.6362 97.82 60.9001C101.6 61.9001 102.42 64.7601 100.21 69.4601C95.67 79.1101 94.92 80.7001 87.41 80.9601C85.92 81.0201 73.03 81.0501 73.03 81.0501L24.56 81.0801Z" fill="white"/>
<path d="M108.78 95.07C109.311 97.4758 109.018 99.9901 107.95 102.21C106.37 105.88 104.4 108.21 101.43 109.21C100.462 109.547 99.4529 109.749 98.43 109.81H58.11L40.17 109.73C34.56 109.73 33.17 107.38 35.81 102.39C37.6 99.06 39.48 95.8 41.23 92.47C41.6437 91.5726 42.2887 90.8014 43.0988 90.2355C43.909 89.6697 44.855 89.3295 45.84 89.25H100.91C105.2 89.63 108 91.85 108.78 95.07Z" fill="white"/>
<path d="M122.37 38.3701C122.31 38.4901 122.24 38.6001 122.18 38.7101C116.7 49.2701 115.32 51.9101 108.34 52.5701C106.62 52.7401 53.1399 52.8102 50.1999 52.7901C49.4935 52.804 48.7881 52.7301 48.0999 52.5701C46.3099 52.1301 45.8799 50.9501 46.7399 48.9002L47.9999 46.5101V46.4501C49.9999 42.7401 52.1399 39.0901 54.2499 35.4501C54.6947 34.585 55.3236 33.8278 56.0924 33.2317C56.8612 32.6357 57.7512 32.2153 58.6999 32.0001C59.4553 31.8359 60.227 31.7587 60.9999 31.7701C63.9999 31.7701 116.39 31.7701 118.13 31.7701C118.918 31.7605 119.705 31.8275 120.48 31.9701C123.56 32.6401 124.18 34.7401 122.37 38.3701Z" fill="white"/>
<path d="M97.48 89.23L97.45 89.29" stroke="black" stroke-width="0.28" stroke-miterlimit="10" stroke-dasharray="0.06 0.06"/>
</g>
</g>
<defs>
<clipPath id="clip0_118_1813">
<rect width="577" height="138" fill="white" transform="translate(0.0100098)"/>
</clipPath>
<clipPath id="clip1_118_1813">
<rect width="577.45" height="137.77" fill="white"/>
</clipPath>
</defs>
</svg>
