<svg width="105" height="79" viewBox="0 0 105 79" fill="none" xmlns="http://www.w3.org/2000/svg">
<g clip-path="url(#clip0_118_1807)">
<path d="M38.52 49.28C27.7067 49.28 16.8934 49.28 6.08002 49.28C0.310023 49.28 -1.49998 46.44 1.27002 41.28C9.27002 26.44 5.07002 28.92 21.27 28.8C39.51 28.66 57.75 28.75 75.99 28.8C82.49 28.8 84.44 31.87 81.68 37.72C76.25 49.27 76.25 49.27 63.54 49.27H38.54L38.52 49.28Z" fill="#FE5C19"/>
<path d="M61 21C51.22 21 41.45 21 31.67 21C27.83 21 26.88 19.54 28.67 16.21C30.93 12 33.36 7.83 35.76 3.67C37.25 1.08 39.4 0 42.51 0C61.51 0.11 80.57 0.06 99.6 0C104.6 0 106.03 2.14 103.82 6.56C103.76 6.68 103.68 6.78 103.62 6.9C96.33 21 96.33 21 80.57 21H61Z" fill="#FE5C19"/>
<path d="M51.0001 77.9298H21.6801C16.0701 77.9298 14.6801 75.5798 17.3301 70.5898C19.1001 67.2698 21.0001 63.9998 22.7501 60.6798C23.2534 59.623 24.0663 58.7442 25.0808 58.1601C26.0953 57.5761 27.2634 57.3144 28.4301 57.4098C46.0201 57.4098 63.6101 57.4098 81.2101 57.4098C89.0501 57.4098 92.4701 63.2399 89.4201 70.4099C87.0001 75.9999 83.6301 78.4998 77.1801 77.9998C68.5001 77.3598 59.7301 77.8398 51.0001 77.8398V77.9298Z" fill="#FE5C19"/>
</g>
<defs>
<clipPath id="clip0_118_1807">
<rect width="104.83" height="78.08" fill="white"/>
</clipPath>
</defs>
</svg>
